<?xml version="1.0" encoding="utf-8"?>
<!-- Generator: Adobe Illustrator 16.0.0, SVG Export Plug-In . SVG Version: 6.00 Build 0)  -->
<!DOCTYPE svg PUBLIC "-//W3C//DTD SVG 1.1//EN" "http://www.w3.org/Graphics/SVG/1.1/DTD/svg11.dtd">
<svg version="1.1" id="Capa_1" xmlns="http://www.w3.org/2000/svg" xmlns:xlink="http://www.w3.org/1999/xlink" x="0px" y="0px"
	 width="60px" height="40px" viewBox="-10 0 60 40" enable-background="new -10 0 60 40" xml:space="preserve">
<path fill="#0052B4" d="M40,20c0,11.045-8.955,20-20,20C8.955,40,0,31.045,0,20C0,20.005,20,0.002,20,0C31.045,0,40,8.954,40,20z"/>
<path fill="#F0F0F0" d="M19.946,20H20c0-0.018,0-0.035,0-0.054C19.982,19.964,19.964,19.982,19.946,20z"/>
<path fill="#F0F0F0" d="M20,10.436c0-3.519,0-5.825,0-10.435h-0.003C8.953,0.003,0,8.956,0,20.001h10.435v-5.876l5.876,5.876h3.636
	c0.018-0.018,0.036-0.036,0.053-0.054c0-1.347,0-2.55,0-3.635l-5.876-5.876H20z"/>
<path fill="#D80027" d="M10.118,2.608C6.99,4.39,4.39,6.99,2.608,10.118V20h5.218V7.826l0,0H20c0-1.646,0-3.213,0-5.218H10.118z"/>
<path fill="#D80027" d="M20,17.541l-7.105-7.106h-2.459l0,0L20,20l0,0C20,20,20,18.304,20,17.541z"/>
<path fill="#F0F0F0" d="M12.062,23.479l1.098,2.295l2.479-0.572l-1.11,2.289l1.994,1.58l-2.482,0.56l0.007,2.544l-1.985-1.592
	l-1.984,1.592l0.007-2.544l-2.482-0.56l1.993-1.58l-1.11-2.289l2.479,0.572L12.062,23.479z"/>
<path fill="#F0F0F0" d="M29.943,27.826l0.549,1.147l1.24-0.286l-0.556,1.145l0.997,0.79l-1.241,0.28l0.003,1.271l-0.992-0.796
	l-0.992,0.796l0.004-1.271l-1.241-0.28l0.997-0.79l-0.555-1.145l1.238,0.286L29.943,27.826z"/>
<path fill="#F0F0F0" d="M24.838,15.652l0.549,1.147l1.24-0.287l-0.555,1.145l0.996,0.791l-1.24,0.28L25.83,20l-0.992-0.796
	L23.846,20l0.004-1.272l-1.241-0.28l0.997-0.791l-0.555-1.145l1.238,0.287L24.838,15.652z"/>
<path fill="#F0F0F0" d="M29.943,8.695l0.549,1.148l1.24-0.287l-0.555,1.145l0.996,0.791l-1.241,0.28l0.003,1.272l-0.992-0.796
	l-0.992,0.796l0.004-1.272l-1.241-0.28l0.997-0.791l-0.555-1.145l1.238,0.287L29.943,8.695z"/>
<path fill="#F0F0F0" d="M34.404,13.913l0.549,1.147l1.238-0.286l-0.555,1.145l0.996,0.79l-1.24,0.28l0.004,1.272l-0.992-0.796
	l-0.993,0.796l0.003-1.272l-1.24-0.28l0.996-0.79l-0.555-1.145l1.24,0.286L34.404,13.913z"/>
<path fill="#F0F0F0" d="M31.215,20l0.432,1.328h1.396l-1.13,0.822l0.433,1.328l-1.131-0.821l-1.131,0.821l0.433-1.328l-1.13-0.822
	h1.396L31.215,20z"/>
</svg>
