<?xml version="1.0" encoding="utf-8"?>
<!-- Generator: Adobe Illustrator 16.0.0, SVG Export Plug-In . SVG Version: 6.00 Build 0)  -->
<!DOCTYPE svg PUBLIC "-//W3C//DTD SVG 1.1//EN" "http://www.w3.org/Graphics/SVG/1.1/DTD/svg11.dtd">
<svg version="1.1" id="Capa_1" xmlns="http://www.w3.org/2000/svg" xmlns:xlink="http://www.w3.org/1999/xlink" x="0px" y="0px"
	 width="60px" height="40px" viewBox="0 0 60 40" enable-background="new 0 0 60 40" xml:space="preserve">
<g>
	<path fill="#FFFFFF" d="M30,40c11.045,0,20-8.954,20-19.999S41.046,0.002,30,0.002c-11.045,0-19.999,8.954-19.999,19.999
		S18.956,40,30,40z"/>
	<path fill="#D32027" d="M10,20c0,7.518,4.15,14.063,10.281,17.479V2.52C14.15,5.937,10,12.482,10,20z"/>
	<path fill="#E7E7E7" d="M30,0c-0.006,0-0.012,0-0.018,0C29.988,0,29.993,0,30,0c11.045,0,11.045,40,0,40
		c3.521,0,6.829-0.914,9.703-2.512V2.511C36.828,0.913,33.521,0,30,0z"/>
	<path fill="#B52025" d="M39.702,2.511v34.978C45.843,34.074,50,27.523,50,20C50,12.476,45.843,5.925,39.702,2.511z"/>
	<path fill="#F3F1F2" d="M30,0c-0.006,0-0.012,0-0.018,0c-3.521,0.003-6.828,0.919-9.701,2.52v34.958
		c2.693,1.5,5.767,2.399,9.042,2.51c0.226,0.004,0.447,0.011,0.677,0.011C41.045,40,41.045,0,30,0z"/>
	<path fill="#D32027" d="M37.762,19.639c-0.275-0.263-0.84-0.234-0.941-0.67c-0.133-1.073,0.361-1.697,0.673-2.414
		c-1.575,0.368-2.817,0.975-2.816-0.805c-0.903,1.106-1.877,2.212-2.278,2.011c-0.57-0.335,0.547-3.182,0.67-4.693
		c-0.553,0.251-1.609,0.804-1.609,0.804s-0.96-1.879-1.469-2.807v-0.01c-0.002,0.001-0.002,0.003-0.003,0.005
		c-0.001-0.001-0.001-0.003-0.002-0.005v0.01c-0.509,0.927-1.47,2.807-1.47,2.807s-1.058-0.553-1.609-0.804
		c0.122,1.511,1.24,4.358,0.669,4.693c-0.402,0.201-1.375-0.905-2.278-2.011c0,1.78-1.242,1.173-2.817,0.805
		c0.311,0.716,0.804,1.341,0.67,2.414c-0.099,0.438-0.664,0.408-0.939,0.67c1.828,1.828,4.997,3.185,3.487,4.693l4.069-0.379
		c0.133,1.375-0.297,3.063,0.077,4c0.087,0,0.059,0,0.141,0c0.001,0,0.003,0,0.005,0c0.082,0,0.052,0,0.139,0
		c0.383-0.973-0.054-2.625,0.079-4l4.067,0.379C32.766,22.823,35.934,21.467,37.762,19.639z"/>
</g>
</svg>
