<?xml version="1.0" encoding="utf-8"?>
<!-- Generator: Adobe Illustrator 16.0.0, SVG Export Plug-In . SVG Version: 6.00 Build 0)  -->
<!DOCTYPE svg PUBLIC "-//W3C//DTD SVG 1.1//EN" "http://www.w3.org/Graphics/SVG/1.1/DTD/svg11.dtd">
<svg version="1.1" id="Capa_1" xmlns="http://www.w3.org/2000/svg" xmlns:xlink="http://www.w3.org/1999/xlink" x="0px" y="0px"
	 width="60px" height="40px" viewBox="-10 0 60 40" enable-background="new -10 0 60 40" xml:space="preserve">
<path fill="#FFFFFF" d="M20.001,40C31.046,40,40,31.046,40,20.001C40,8.956,31.046,0.002,20.001,0.002c-11.045,0-20,8.954-20,19.999
	C0.001,31.046,8.956,40,20.001,40z"/>
<path fill="#D32027" d="M38.857,13.332c-0.003-0.006-0.004-0.012-0.007-0.017c-2.56-7.218-9.144-12.527-17.055-13.232
	c3.062,1.678,3.955,6.995,4.738,13.25c0.535,4.272,0.538,8.98,0.011,13.257c-0.777,6.289-1.675,11.644-4.748,13.328
	c7.924-0.706,14.518-6.034,17.067-13.271c0.007-0.02,0.013-0.039,0.019-0.058C39.604,24.525,40,22.309,40,20
	C40,17.661,39.595,15.417,38.857,13.332z"/>
<path fill="#DB2727" d="M27.564,13.332c-0.783-6.255-2.707-11.571-5.769-13.25C21.204,0.03,20.605,0,20,0
	C11.299,0,3.9,5.557,1.149,13.314c-0.002,0.005-0.004,0.011-0.006,0.017C0.405,15.417,0,17.661,0,20c0,2.31,0.396,4.525,1.116,6.589
	c0.007,0.019,0.013,0.038,0.02,0.058C3.876,34.424,11.285,40,20,40c0.606,0,1.205-0.03,1.796-0.083
	c3.074-1.685,5.001-7.04,5.778-13.328C28.103,22.311,28.1,17.604,27.564,13.332z"/>
<path fill="#FFFFFF" d="M23.424,9.688h-6.878v20.631h6.878V9.688z"/>
<path fill="#FFFFFF" d="M30.301,16.564H9.67v6.877h20.63V16.564z"/>
</svg>
