<?xml version="1.0" encoding="utf-8"?>
<!-- Generator: Adobe Illustrator 16.0.0, SVG Export Plug-In . SVG Version: 6.00 Build 0)  -->
<!DOCTYPE svg PUBLIC "-//W3C//DTD SVG 1.1//EN" "http://www.w3.org/Graphics/SVG/1.1/DTD/svg11.dtd">
<svg version="1.1" id="Capa_1" xmlns="http://www.w3.org/2000/svg" xmlns:xlink="http://www.w3.org/1999/xlink" x="0px" y="0px"
	 width="60px" height="40px" viewBox="-10 0 60 40" enable-background="new -10 0 60 40" xml:space="preserve">
<path fill="#D80027" d="M20,40c11.046,0,20-8.954,20-20S31.046,0,20,0S0,8.954,0,20S8.954,40,20,40z"/>
<path fill="#FFDA44" d="M10.945,12.172l1.727,5.313h5.586l-4.516,3.289l1.727,5.313l-4.523-3.281l-4.523,3.281l1.734-5.313
	l-4.523-3.289h5.586L10.945,12.172z"/>
<path fill="#FFDA44" d="M23.711,30.977l-1.32-1.625l-1.953,0.758l1.133-1.758l-1.32-1.633l2.023,0.539l1.141-1.758l0.109,2.094
	l2.031,0.539l-1.961,0.75L23.711,30.977z"/>
<path fill="#FFDA44" d="M26.336,26.211l0.625-2L25.25,23l2.094-0.031l0.617-2l0.68,1.984l2.094-0.023l-1.68,1.25l0.672,1.984
	l-1.711-1.211L26.336,26.211z"/>
<path fill="#FFDA44" d="M29.875,14.68l-0.922,1.883l1.5,1.461l-2.07-0.297l-0.922,1.875l-0.359-2.063l-2.078-0.297l1.859-0.977
	l-0.359-2.07l1.5,1.461L29.875,14.68z"/>
<path fill="#FFDA44" d="M23.766,8.977l-0.156,2.086l1.945,0.789l-2.039,0.5l-0.148,2.094l-1.102-1.781l-2.039,0.5l1.352-1.602
	l-1.109-1.773l1.945,0.789L23.766,8.977z"/>
</svg>
