<?xml version="1.0" encoding="utf-8"?>
<!-- Generator: Adobe Illustrator 16.0.0, SVG Export Plug-In . SVG Version: 6.00 Build 0)  -->
<!DOCTYPE svg PUBLIC "-//W3C//DTD SVG 1.1//EN" "http://www.w3.org/Graphics/SVG/1.1/DTD/svg11.dtd">
<svg version="1.1" id="Capa_1" xmlns="http://www.w3.org/2000/svg" xmlns:xlink="http://www.w3.org/1999/xlink" x="0px" y="0px"
	 width="60px" height="40px" viewBox="-10 0 60 40" enable-background="new -10 0 60 40" xml:space="preserve">
<path fill="#F5BF42" d="M39.877,17.788C39.959,18.522,40,19.261,40,20.001c0,5.208-2.032,10.211-5.664,13.944
	c-3.631,3.733-8.576,5.902-13.782,6.047c-5.207,0.145-10.264-1.748-14.096-5.275c-3.833-3.526-6.138-8.409-6.427-13.609
	S1.494,10.799,4.913,6.871c3.419-3.929,8.236-6.369,13.426-6.801c5.19-0.433,10.344,1.177,14.368,4.485
	C36.729,7.864,39.301,12.611,39.877,17.788z"/>
<path fill="#EFD66A" d="M19.999,5.633c2.842,0,5.62,0.842,7.983,2.421c2.362,1.579,4.204,3.823,5.291,6.448
	c1.088,2.625,1.373,5.515,0.818,8.302c-0.555,2.787-1.924,5.347-3.933,7.356c-2.009,2.009-4.569,3.378-7.356,3.933
	c-2.788,0.554-5.677,0.27-8.302-0.818s-4.869-2.93-6.448-5.292c-1.579-2.362-2.421-5.141-2.421-7.982
	c0-3.811,1.514-7.465,4.208-10.16C12.534,7.146,16.188,5.633,19.999,5.633z"/>
<path fill="#C1AD57" d="M11.476,20.001c0-3.304,1.139-6.506,3.224-9.068c2.084-2.563,4.988-4.329,8.223-5.002
	c-2.09-0.433-4.25-0.394-6.322,0.112c-2.073,0.507-4.007,1.469-5.662,2.816c-1.655,1.348-2.989,3.046-3.905,4.974
	s-1.391,4.035-1.391,6.168s0.475,4.241,1.391,6.168s2.25,3.626,3.905,4.974s3.588,2.31,5.662,2.816
	c2.073,0.506,4.232,0.545,6.322,0.112c-3.234-0.673-6.138-2.439-8.223-5.002C12.614,26.507,11.476,23.305,11.476,20.001z"/>
<path fill="#C1913D" d="M26.277,16.603c-0.005-1.162-0.445-2.28-1.234-3.134c-0.79-0.853-1.871-1.379-3.029-1.474v-1.228
	c0-0.31-0.123-0.607-0.342-0.827c-0.22-0.219-0.518-0.343-0.827-0.343s-0.607,0.124-0.827,0.343
	c-0.219,0.219-0.342,0.517-0.342,0.827v1.258h-0.974v-1.258c0-0.31-0.123-0.607-0.342-0.827s-0.517-0.343-0.827-0.343
	s-0.607,0.124-0.826,0.343c-0.22,0.219-0.343,0.517-0.343,0.827v1.258h-1.422c-0.31,0-0.607,0.123-0.827,0.342
	s-0.343,0.517-0.343,0.827s0.124,0.607,0.343,0.827s0.517,0.342,0.827,0.342h0.643v11.495h-0.643c-0.31,0-0.607,0.123-0.827,0.342
	c-0.219,0.22-0.343,0.518-0.343,0.827s0.124,0.607,0.343,0.827c0.219,0.219,0.517,0.342,0.827,0.342h1.422v1.039
	c0,0.31,0.123,0.607,0.343,0.826c0.219,0.219,0.516,0.343,0.826,0.343s0.607-0.124,0.827-0.343s0.342-0.517,0.342-0.826v-1.039
	h0.974v1.039c0,0.31,0.124,0.607,0.342,0.826c0.219,0.219,0.517,0.343,0.827,0.343s0.607-0.124,0.827-0.343
	c0.219-0.219,0.342-0.517,0.342-0.826v-1.121c0.904-0.07,1.769-0.404,2.483-0.963s1.249-1.315,1.535-2.176
	c0.286-0.861,0.312-1.787,0.073-2.662s-0.729-1.661-1.412-2.258c0.492-0.431,0.889-0.961,1.162-1.556
	C26.128,17.903,26.271,17.258,26.277,16.603z M21.605,25.857h-3.683v-4.676h3.683c0.621,0,1.215,0.246,1.654,0.685
	c0.438,0.438,0.684,1.033,0.684,1.653s-0.246,1.215-0.684,1.653C22.82,25.611,22.227,25.857,21.605,25.857z M21.605,18.844h-3.683
	v-4.481h3.683c0.595,0,1.164,0.236,1.585,0.656c0.42,0.42,0.656,0.99,0.656,1.584s-0.236,1.164-0.656,1.584
	C22.77,18.608,22.2,18.844,21.605,18.844z"/>
</svg>
