<?xml version="1.0" encoding="utf-8"?>
<!-- Generator: Adobe Illustrator 16.0.0, SVG Export Plug-In . SVG Version: 6.00 Build 0)  -->
<!DOCTYPE svg PUBLIC "-//W3C//DTD SVG 1.1//EN" "http://www.w3.org/Graphics/SVG/1.1/DTD/svg11.dtd">
<svg version="1.1" id="Capa_1" xmlns="http://www.w3.org/2000/svg" xmlns:xlink="http://www.w3.org/1999/xlink" x="0px" y="0px"
	 width="60px" height="40px" viewBox="0 0 60 40" enable-background="new 0 0 60 40" xml:space="preserve">
<g>
	<path fill="#0052B4" d="M30,40c11.046,0,20-8.954,20-20S41.046,0,30,0S10,8.954,10,20S18.954,40,30,40z"/>
	<path fill="#FFDA44" d="M30,7.826l0.646,1.993h2.096l-1.694,1.232l0.647,1.993L30,11.812l-1.695,1.231l0.647-1.993l-1.695-1.232
		h2.095L30,7.826z"/>
	<path fill="#FFDA44" d="M21.392,11.392l1.867,0.951l1.481-1.481l-0.328,2.069l1.867,0.952l-2.07,0.328l-0.328,2.07l-0.952-1.867
		l-2.069,0.328l1.481-1.481L21.392,11.392z"/>
	<path fill="#FFDA44" d="M17.826,20l1.993-0.647v-2.096l1.232,1.695l1.993-0.647L21.812,20l1.231,1.695l-1.993-0.647l-1.232,1.695
		v-2.097L17.826,20z"/>
	<path fill="#FFDA44" d="M21.392,28.607l0.951-1.866l-1.481-1.481l2.069,0.328l0.952-1.867l0.328,2.069l2.069,0.327l-1.867,0.951
		l0.328,2.07l-1.481-1.482L21.392,28.607z"/>
	<path fill="#FFDA44" d="M30,32.174l-0.647-1.992h-2.095l1.695-1.231l-0.648-1.992L30,28.188l1.695-1.229l-0.647,1.992l1.694,1.231
		h-2.096L30,32.174z"/>
	<path fill="#FFDA44" d="M38.607,28.607l-1.866-0.951l-1.481,1.482l0.328-2.07l-1.867-0.951l2.069-0.327l0.327-2.069l0.951,1.867
		l2.07-0.328l-1.482,1.481L38.607,28.607z"/>
	<path fill="#FFDA44" d="M42.174,20l-1.992,0.646v2.097l-1.231-1.695l-1.992,0.647L38.188,20l-1.229-1.695l1.992,0.647l1.231-1.695
		v2.096L42.174,20z"/>
	<path fill="#FFDA44" d="M38.607,11.392l-0.95,1.867l1.481,1.482l-2.07-0.328l-0.951,1.867l-0.327-2.07l-2.069-0.328l1.867-0.951
		l-0.328-2.07l1.481,1.482L38.607,11.392z"/>
</g>
</svg>
