<svg width="24" height="24" viewBox="0 0 24 24" fill="none" xmlns="http://www.w3.org/2000/svg">
    <path
        d="M12 6.63525C8.56091 6.63525 5.44216 8.51681 3.14084 11.573C2.95305 11.8233 2.95305 12.1731 3.14084 12.4235C5.44216 15.4834 8.56091 17.3649 12 17.3649C15.4391 17.3649 18.5578 15.4834 20.8592 12.4272C21.0469 12.1768 21.0469 11.827 20.8592 11.5766C18.5578 8.51681 15.4391 6.63525 12 6.63525ZM12.2467 15.7779C9.96379 15.9215 8.07855 14.04 8.22215 11.7534C8.33998 9.86815 9.86806 8.34007 11.7533 8.22224C14.0362 8.07864 15.9214 9.9602 15.7778 12.2468C15.6563 14.1283 14.1283 15.6564 12.2467 15.7779ZM12.1326 14.0326C10.9027 14.1099 9.88647 13.0974 9.96747 11.8675C10.0301 10.8513 10.8549 10.0302 11.8711 9.96388C13.101 9.88656 14.1172 10.8991 14.0362 12.129C13.9699 13.1489 13.1451 13.97 12.1326 14.0326Z"
        fill="#00AFFD" />
</svg>
