<svg width="24" height="24" viewBox="0 0 24 24" fill="none" xmlns="http://www.w3.org/2000/svg">
    <path d="M6 5.5L18 17.5" stroke="#00AFFF" stroke-width="1.5" stroke-linecap="round" />
    <path fill-rule="evenodd" clip-rule="evenodd"
        d="M18.4828 14.9222C19.3444 14.219 20.1415 13.3802 20.8592 12.4272C21.0469 12.1768 21.0469 11.827 20.8592 11.5766C18.5578 8.51681 15.4391 6.63525 12 6.63525C11.4385 6.63525 10.8856 6.68541 10.3433 6.78264L11.7812 8.22059C14.0423 8.09453 15.9056 9.95421 15.7795 12.2188L18.4828 14.9222ZM11.4703 10.0309L13.9693 12.5299C13.7437 13.3568 13.0084 13.9785 12.1326 14.0326C10.9027 14.1099 9.88647 13.0974 9.96747 11.8675C10.0216 10.9889 10.6455 10.2561 11.4703 10.0309ZM10.142 8.70268C9.05974 9.31646 8.30365 10.4495 8.22215 11.7534C8.07855 14.04 9.96379 15.9215 12.2467 15.7779C13.548 15.6939 14.6803 14.937 15.2951 13.8557L17.2478 15.8085C15.6467 16.8082 13.8707 17.3649 12 17.3649C8.56091 17.3649 5.44216 15.4834 3.14084 12.4235C2.95305 12.1731 2.95305 11.8233 3.14084 11.573C4.6732 9.53799 6.56798 8.0238 8.67844 7.2391L10.142 8.70268Z"
        fill="#00AFFF" />
</svg>
