<?xml version="1.0" encoding="utf-8"?>
<!-- Generator: Adobe Illustrator 16.0.0, SVG Export Plug-In . SVG Version: 6.00 Build 0)  -->
<!DOCTYPE svg PUBLIC "-//W3C//DTD SVG 1.1//EN" "http://www.w3.org/Graphics/SVG/1.1/DTD/svg11.dtd">
<svg version="1.1" id="Capa_1" xmlns="http://www.w3.org/2000/svg" xmlns:xlink="http://www.w3.org/1999/xlink" x="0px" y="0px"
	 width="60px" height="40px" viewBox="-10 0 60 40" enable-background="new -10 0 60 40" xml:space="preserve">
<path fill="#F0F0F0" d="M20,40c11.046,0,20-8.954,20-20S31.046,0,20,0S0,8.954,0,20S8.954,40,20,40z"/>
<path fill="#0052B4" d="M4.135,7.823c-1.571,2.044-2.756,4.4-3.446,6.959h10.405L4.135,7.823z"/>
<path fill="#0052B4" d="M39.311,14.783c-0.689-2.559-1.874-4.915-3.445-6.959l-6.959,6.959H39.311z"/>
<path fill="#0052B4" d="M0.689,25.218c0.69,2.56,1.875,4.915,3.446,6.959l6.958-6.959H0.689z"/>
<path fill="#0052B4" d="M32.177,4.134c-2.044-1.571-4.399-2.755-6.959-3.445v10.404L32.177,4.134z"/>
<path fill="#0052B4" d="M7.824,35.865c2.044,1.571,4.4,2.756,6.959,3.445V28.906L7.824,35.865z"/>
<path fill="#0052B4" d="M14.783,0.689c-2.56,0.69-4.916,1.875-6.959,3.445l6.959,6.959V0.689z"/>
<path fill="#0052B4" d="M25.218,39.311c2.56-0.689,4.915-1.874,6.959-3.445l-6.959-6.959V39.311z"/>
<path fill="#0052B4" d="M28.906,25.218l6.959,6.959c1.571-2.044,2.756-4.399,3.445-6.959H28.906z"/>
<path fill="#D80027" d="M39.83,17.391H22.609l0,0V0.169C21.755,0.058,20.885,0,20,0c-0.884,0-1.755,0.058-2.609,0.169v17.222l0,0
	H0.169C0.058,18.245,0,19.116,0,20c0,0.885,0.058,1.755,0.169,2.609h17.222l0,0V39.83C18.245,39.941,19.116,40,20,40
	c0.885,0,1.755-0.059,2.609-0.17V22.609l0,0H39.83C39.941,21.755,40,20.885,40,20C40,19.116,39.941,18.245,39.83,17.391z"/>
<path fill="#D80027" d="M25.217,25.218l8.926,8.925c0.41-0.41,0.801-0.84,1.175-1.284l-7.641-7.641H25.217L25.217,25.218z"/>
<path fill="#D80027" d="M14.783,25.218L14.783,25.218l-8.925,8.925c0.41,0.41,0.839,0.802,1.284,1.176l7.641-7.642V25.218z"/>
<path fill="#D80027" d="M14.782,14.783L14.782,14.783L5.858,5.858c-0.411,0.41-0.802,0.839-1.176,1.284l7.641,7.641H14.782
	L14.782,14.783z"/>
<path fill="#D80027" d="M25.217,14.783l8.926-8.925c-0.41-0.411-0.84-0.802-1.285-1.175l-7.641,7.641V14.783z"/>
</svg>
