<svg width="26" height="26" viewBox="0 0 26 26" fill="none" xmlns="http://www.w3.org/2000/svg">
<path d="M22.3122 13.1352H21.0041C21.0041 8.86358 17.5314 5.39082 13.2609 5.39082V4.08387C18.2533 4.08047 22.3122 8.14164 22.3122 13.1352ZM13.2609 6.34133V7.64828C16.2866 7.64828 18.7455 10.1094 18.7433 13.1341L20.0514 13.133C20.0514 9.38862 17.0075 6.34133 13.2609 6.34133ZM12.9983 0.1698C5.92382 0.1698 0.168701 5.92492 0.168701 13.0006C0.168701 20.0739 5.92382 25.8291 12.9983 25.8291C13.4374 25.8291 13.7904 25.4749 13.7904 25.0404C13.7904 24.6002 13.4362 24.2471 12.9983 24.2471C6.79625 24.2471 1.75175 19.2004 1.75175 13.0017C1.75175 6.79848 6.79625 1.75398 12.9983 1.75398C19.2004 1.75398 24.2449 6.79961 24.2449 13.0017C24.2449 15.593 22.8644 18.1616 20.8898 19.2502C20.1724 19.644 19.395 19.8386 18.5656 19.8465C19.0646 19.55 19.4946 19.1506 19.816 18.6459C19.8794 18.5509 19.9608 18.4671 20.0027 18.363C20.2607 17.7441 20.2833 17.0414 20.4372 16.3851C20.6307 15.55 16.7789 13.916 16.4451 14.9604C16.3251 15.3474 16.1395 16.5684 15.8951 16.8909C15.6824 17.1783 15.1483 17.0425 14.8156 16.7596C13.9375 16.0116 12.9576 14.9129 12.0999 14.045V14.0427C12.0784 14.0201 12.0512 13.9963 12.0286 13.9714C12.0037 13.9477 11.9799 13.9217 11.955 13.9002V13.9024C11.0871 13.0402 9.98725 12.0636 9.24042 11.1844C8.95753 10.8517 8.82061 10.3188 9.10803 10.1026C9.43052 9.85822 10.6526 9.67717 11.0396 9.55383C12.0818 9.22115 10.4501 5.36819 9.61157 5.56055C8.95866 5.71332 8.25596 5.73934 7.63587 5.99507C7.53063 6.04034 7.44916 6.12068 7.35411 6.18404C5.15662 7.57699 4.8726 10.9615 7.01804 13.4826C7.83502 14.4478 8.68935 15.3802 9.56744 16.2923L9.56178 16.2945C9.58555 16.3183 9.61157 16.3421 9.63647 16.3658C9.66023 16.3896 9.68173 16.4145 9.70549 16.4405L9.71115 16.436C10.6232 17.3129 11.7027 18.6074 13.4566 19.7775C17.1512 22.2465 19.9869 21.5563 21.6582 20.642C24.5403 19.0533 25.8314 15.662 25.8314 13.0062C25.8302 5.92492 20.074 0.1698 12.9983 0.1698Z" fill="white"/>
</svg>
