<?xml version="1.0" encoding="utf-8"?>
<!-- Generator: Adobe Illustrator 16.0.0, SVG Export Plug-In . SVG Version: 6.00 Build 0)  -->
<!DOCTYPE svg PUBLIC "-//W3C//DTD SVG 1.1//EN" "http://www.w3.org/Graphics/SVG/1.1/DTD/svg11.dtd">
<svg version="1.1" id="Capa_1" xmlns="http://www.w3.org/2000/svg" xmlns:xlink="http://www.w3.org/1999/xlink" x="0px" y="0px"
	 width="60px" height="40px" viewBox="-10 0 60 40" enable-background="new -10 0 60 40" xml:space="preserve">
<path fill="#D80027" d="M20,40c11.046,0,20-8.954,20-20S31.046,0,20,0S0,8.954,0,20S8.954,40,20,40z"/>
<path fill="#F0F0F0" d="M22.064,15.13c-0.454,1.891-1.262,1.53-1.658,3.179c-2.334-0.561-3.772-2.909-3.211-5.244
	c0.561-2.335,2.909-3.772,5.244-3.211C21.646,13.152,22.472,13.439,22.064,15.13z"/>
<path fill="#F0F0F0" d="M16.007,16.531c1.657,1.017,1.065,1.673,2.51,2.56c-1.255,2.047-3.932,2.688-5.979,1.434
	c-2.047-1.255-2.689-3.932-1.434-5.979C13.996,16.318,14.524,15.622,16.007,16.531z"/>
<path fill="#F0F0F0" d="M15.467,22.727c1.479-1.263,1.92-0.496,3.21-1.598c1.559,1.826,1.342,4.571-0.484,6.13
	c-1.827,1.56-4.571,1.342-6.13-0.483C14.643,24.572,14.144,23.855,15.467,22.727z"/>
<path fill="#F0F0F0" d="M21.191,25.153c-0.744-1.796,0.121-1.979-0.527-3.546c2.219-0.918,4.762,0.136,5.681,2.354
	c0.918,2.219-0.136,4.762-2.354,5.68C22.693,26.508,21.856,26.761,21.191,25.153z"/>
<path fill="#F0F0F0" d="M25.27,20.459c-1.939,0.152-1.846-0.728-3.536-0.595c-0.188-2.394,1.601-4.487,3.995-4.675
	c2.394-0.188,4.486,1.601,4.674,3.995C27.021,19.45,27.003,20.323,25.27,20.459z"/>
</svg>
