<svg width="20" height="20" viewBox="0 0 20 20" fill="none" xmlns="http://www.w3.org/2000/svg">
    <path fill-rule="evenodd" clip-rule="evenodd"
        d="M3.33325 10.0002C3.33325 9.53993 3.70635 9.16683 4.16659 9.16683L15.8333 9.16683C16.2935 9.16683 16.6666 9.53992 16.6666 10.0002C16.6666 10.4604 16.2935 10.8335 15.8333 10.8335L4.16659 10.8335C3.70635 10.8335 3.33325 10.4604 3.33325 10.0002Z"
        fill="#003248" />
    <path fill-rule="evenodd" clip-rule="evenodd"
        d="M9.41083 16.4224C9.08539 16.097 9.08539 15.5694 9.41083 15.2439L14.6549 9.99984L9.41083 4.75576C9.08539 4.43032 9.08539 3.90269 9.41083 3.57725C9.73626 3.25181 10.2639 3.25181 10.5893 3.57725L16.4227 9.41058C16.7481 9.73602 16.7481 10.2637 16.4227 10.5891L10.5893 16.4224C10.2639 16.7479 9.73626 16.7479 9.41083 16.4224Z"
        fill="#003248" />
</svg>
