<svg width="16" height="16" viewBox="0 0 16 16" fill="none" xmlns="http://www.w3.org/2000/svg">
<path fill-rule="evenodd" clip-rule="evenodd" d="M15.8934 0.0915351C15.8228 0.0306044 15.7016 0 15.5311 0H12.0135C11.7085 0 11.5036 0.136051 11.3995 0.409543C11.0944 1.22779 10.8027 2.04493 10.523 2.86012C10.2439 3.67587 9.96839 4.49301 9.6968 5.3121C9.42521 6.13035 9.14972 6.94749 8.87059 7.76268C8.59202 8.57842 8.29922 9.39556 7.99274 10.2191L6.65322 13.5085C6.64541 13.5375 6.61442 13.5592 6.58344 13.5561C6.54883 13.5525 6.52371 13.5216 6.52734 13.4874C6.52734 13.486 7.3876 9.30987 7.3876 9.30987C7.3876 9.30987 7.46771 8.99687 7.46101 8.81603C7.45431 8.63518 7.34461 8.34277 7.34461 8.34277L4.58881 0.409543C4.48498 0.136051 4.29155 0 4.00823 0H0.413663C0.138167 0 0 0.10016 0 0.301593C0 0.329971 0.0055825 0.359185 0.0167475 0.387285C0.0279125 0.41622 0.033495 0.449051 0.033495 0.484941L5.7617 14.955C5.82087 15.0986 5.88228 15.2391 5.94536 15.3757C6.00872 15.5117 6.0813 15.645 6.16308 15.7738C6.23761 15.9246 6.39029 16 6.62084 16H9.3786C9.49025 16 9.59073 15.9641 9.68061 15.8923C9.76937 15.8208 9.84753 15.7326 9.91452 15.6283C9.98207 15.5245 10.0412 15.4116 10.0932 15.2889C10.1459 15.167 10.19 15.0554 10.2271 14.955L15.9883 0.484941V0.452389C15.9964 0.430966 16 0.391459 16 0.333588C16 0.232872 15.964 0.152744 15.8934 0.0915351Z" fill="#0D42FB"/>
</svg>
