<svg width="21" height="24" viewBox="0 0 21 24" fill="none" xmlns="http://www.w3.org/2000/svg">
<path d="M1 20H6.25" stroke="#7493FF" stroke-width="1.6" stroke-linecap="round"/>
<path d="M4.56569 16.4343C4.25327 16.1219 3.74673 16.1219 3.43431 16.4343C3.1219 16.7467 3.1219 17.2533 3.43431 17.5657L4.56569 16.4343ZM7 20L7.56569 20.5657C7.8781 20.2533 7.8781 19.7467 7.56569 19.4343L7 20ZM3.43431 22.4343C3.1219 22.7467 3.1219 23.2533 3.43431 23.5657C3.74673 23.8781 4.25327 23.8781 4.56569 23.5657L3.43431 22.4343ZM3.43431 17.5657L6.43431 20.5657L7.56569 19.4343L4.56569 16.4343L3.43431 17.5657ZM6.43431 19.4343L3.43431 22.4343L4.56569 23.5657L7.56569 20.5657L6.43431 19.4343Z" fill="#7493FF"/>
<path d="M11.0001 1L20 7H1.99998L11.0001 1Z" stroke="#7493FF" stroke-width="1.6" stroke-linecap="round" stroke-linejoin="round"/>
<path d="M13 21L20 21" stroke="#7493FF" stroke-width="1.6" stroke-linecap="round"/>
<path d="M10 17L18 17" stroke="#7493FF" stroke-width="1.6" stroke-linecap="round"/>
<path d="M19 11V13" stroke="#7493FF" stroke-width="1.6" stroke-linecap="round" stroke-linejoin="round"/>
<path d="M11 11V13" stroke="#7493FF" stroke-width="1.6" stroke-linecap="round" stroke-linejoin="round"/>
<path d="M3 11V13" stroke="#7493FF" stroke-width="1.6" stroke-linecap="round" stroke-linejoin="round"/>
<path d="M7 11V13" stroke="#7493FF" stroke-width="1.6" stroke-linecap="round" stroke-linejoin="round"/>
<path d="M15 11V13" stroke="#7493FF" stroke-width="1.6" stroke-linecap="round" stroke-linejoin="round"/>
</svg>
