<svg width="28" height="28" viewBox="0 0 28 28" fill="none" xmlns="http://www.w3.org/2000/svg">
<g clip-path="url(#clip0)">
<path d="M25.9762 13.4532H21.9287V0.546918C21.9287 0.325762 21.7954 0.126316 21.5911 0.0416597C21.3867 -0.0430513 21.1515 0.0038706 20.9951 0.160168L19.4459 1.70936L17.8968 0.160222C17.6832 -0.0533326 17.3369 -0.0533326 17.1233 0.160222L15.5741 1.70941L14.0251 0.160222C13.8116 -0.0533326 13.4653 -0.0533326 13.2517 0.160222L11.7025 1.70941L10.1532 0.160222C9.93967 -0.0533326 9.59339 -0.0533326 9.37984 0.160222L7.83065 1.70941L6.28157 0.160222C6.06802 -0.0533326 5.72174 -0.0533326 5.50813 0.160222L3.95894 1.70941L2.4098 0.160222C2.19756 -0.0520201 1.85429 -0.0531138 1.64019 0.157214C1.52775 0.267738 1.47323 0.415012 1.477 0.561301V25.1564C1.477 26.7244 2.75264 28 4.32064 28H23.6787C23.6788 28 23.6789 28 23.679 28C23.6791 28 23.6793 28 23.6795 28C25.2475 28 26.5231 26.7244 26.5231 25.1564V14C26.5231 13.698 26.2783 13.4532 25.9762 13.4532ZM4.32064 26.9063C3.35568 26.9063 2.5707 26.1212 2.5707 25.1563V1.8679L3.57224 2.86944C3.7858 3.083 4.13208 3.083 4.34569 2.86944L5.89488 1.32025L7.44406 2.86944C7.65762 3.083 8.0039 3.083 8.21751 2.86944L9.7667 1.32025L11.3159 2.86944C11.5295 3.083 11.8758 3.083 12.0893 2.86944L13.6385 1.32025L15.1877 2.86944C15.4013 3.083 15.7475 3.083 15.9612 2.86944L17.5103 1.32025L19.0595 2.86944C19.2731 3.083 19.6194 3.083 19.8329 2.86944L20.8353 1.86713V14C20.8353 14.005 20.8359 14.0098 20.8361 14.0148V25.1563C20.8361 25.816 21.0625 26.4233 21.4407 26.9063H4.32064ZM25.4294 25.1563C25.4294 26.1212 24.6443 26.9063 23.6794 26.9063C22.7145 26.9063 21.9295 26.1212 21.9295 25.1563V14.5469H25.4294V25.1563Z" fill="white"/>
<path d="M11.7029 8.68765C11.1601 8.68765 10.7185 8.30954 10.7185 7.84486C10.7185 7.38012 11.1601 7.00202 11.7029 7.00202C12.2456 7.00202 12.6872 7.38012 12.6872 7.84486C12.6872 8.1469 12.932 8.39173 13.234 8.39173C13.5361 8.39173 13.7809 8.1469 13.7809 7.84486C13.7809 6.9534 13.131 6.20123 12.2497 5.9769V5.60645C12.2497 5.30441 12.0049 5.05957 11.7029 5.05957C11.4008 5.05957 11.156 5.30441 11.156 5.60645V5.9769C10.2746 6.20123 9.62478 6.95345 9.62478 7.84486C9.62478 8.91263 10.557 9.78134 11.7029 9.78134C12.2456 9.78134 12.6872 10.1595 12.6872 10.6242C12.6872 11.0889 12.2456 11.467 11.7029 11.467C11.1601 11.467 10.7185 11.0889 10.7185 10.6242C10.7185 10.3221 10.4737 10.0773 10.1717 10.0773C9.86962 10.0773 9.62478 10.3221 9.62478 10.6242C9.62478 11.5156 10.2747 12.2678 11.156 12.4921V12.9384C11.156 13.2404 11.4008 13.4853 11.7029 13.4853C12.0049 13.4853 12.2497 13.2404 12.2497 12.9384V12.4921C13.1311 12.2678 13.7809 11.5156 13.7809 10.6242C13.7809 9.55641 12.8487 8.68765 11.7029 8.68765Z" fill="white"/>
<path d="M17.1971 8.6875H16.1312C15.8292 8.6875 15.5844 8.93234 15.5844 9.23438C15.5844 9.53641 15.8292 9.78125 16.1312 9.78125H17.1971C17.4991 9.78125 17.744 9.53641 17.744 9.23438C17.744 8.93234 17.4991 8.6875 17.1971 8.6875Z" fill="white"/>
<path d="M7.27453 8.6875H6.20867C5.90663 8.6875 5.6618 8.93234 5.6618 9.23438C5.6618 9.53641 5.90663 9.78125 6.20867 9.78125H7.27453C7.57657 9.78125 7.82141 9.53641 7.82141 9.23438C7.82141 8.93234 7.57657 8.6875 7.27453 8.6875Z" fill="white"/>
<path d="M17.4737 14.7661H8.80999C8.50795 14.7661 8.26312 15.0109 8.26312 15.313C8.26312 15.615 8.50795 15.8599 8.80999 15.8599H17.4737C17.7758 15.8599 18.0206 15.615 18.0206 15.313C18.0206 15.0109 17.7758 14.7661 17.4737 14.7661Z" fill="white"/>
<path d="M6.31848 14.9263C6.21676 14.8246 6.07567 14.7661 5.93184 14.7661C5.78802 14.7661 5.64692 14.8246 5.5452 14.9263C5.44348 15.0281 5.38497 15.1692 5.38497 15.313C5.38497 15.4568 5.44348 15.5979 5.5452 15.6996C5.64692 15.8013 5.78802 15.8599 5.93184 15.8599C6.07567 15.8599 6.21676 15.8013 6.31848 15.6996C6.4202 15.5979 6.47872 15.4568 6.47872 15.313C6.47872 15.1692 6.4202 15.0281 6.31848 14.9263Z" fill="white"/>
<path d="M17.4737 18.3755H8.80999C8.50795 18.3755 8.26312 18.6203 8.26312 18.9224C8.26312 19.2244 8.50795 19.4692 8.80999 19.4692H17.4737C17.7758 19.4692 18.0206 19.2244 18.0206 18.9224C18.0206 18.6203 17.7758 18.3755 17.4737 18.3755Z" fill="white"/>
<path d="M6.31848 18.5357C6.21676 18.434 6.07567 18.3755 5.93184 18.3755C5.78802 18.3755 5.64692 18.434 5.5452 18.5357C5.44348 18.6374 5.38497 18.7785 5.38497 18.9224C5.38497 19.0662 5.44348 19.2073 5.5452 19.309C5.64692 19.4107 5.78802 19.4692 5.93184 19.4692C6.07567 19.4692 6.21676 19.4107 6.31848 19.309C6.4202 19.2073 6.47872 19.0662 6.47872 18.9224C6.47872 18.7785 6.4202 18.6374 6.31848 18.5357Z" fill="white"/>
<path d="M17.4737 21.9844H8.80999C8.50795 21.9844 8.26312 22.2292 8.26312 22.5312C8.26312 22.8333 8.50795 23.0781 8.80999 23.0781H17.4737C17.7758 23.0781 18.0206 22.8333 18.0206 22.5312C18.0206 22.2292 17.7758 21.9844 17.4737 21.9844Z" fill="white"/>
<path d="M6.31848 22.1446C6.21676 22.0429 6.07567 21.9844 5.93184 21.9844C5.78802 21.9844 5.64692 22.0429 5.5452 22.1446C5.44348 22.2463 5.38497 22.3874 5.38497 22.5312C5.38497 22.6751 5.44348 22.8162 5.5452 22.9179C5.64692 23.0196 5.78802 23.0781 5.93184 23.0781C6.07567 23.0781 6.21676 23.0196 6.31848 22.9179C6.4202 22.8162 6.47872 22.6751 6.47872 22.5312C6.47872 22.3874 6.4202 22.2463 6.31848 22.1446Z" fill="white"/>
</g>
<defs>
<clipPath id="clip0">
<rect width="28" height="28" fill="white"/>
</clipPath>
</defs>
</svg>
