<svg width="31" height="31" viewBox="0 0 31 31" fill="none" xmlns="http://www.w3.org/2000/svg">
<path d="M24.7969 23.527H5.24793C3.48493 23.527 2.05493 22.089 2.05493 20.334V9.71404C2.05493 7.95104 3.48593 6.51904 5.24793 6.51904H24.7969C26.5589 6.51904 27.9919 7.95304 27.9919 9.71404V20.332C27.9939 22.09 26.5589 23.527 24.7969 23.527ZM5.24793 7.38504C3.96593 7.38504 2.91993 8.43004 2.91993 9.71404V20.332C2.91993 21.61 3.96593 22.653 5.24793 22.653H24.7969C26.0799 22.653 27.1249 21.61 27.1249 20.332V9.71404C27.1249 8.43104 26.0799 7.38504 24.7969 7.38504H5.24793Z" fill="white"/>
<path d="M27.314 9.38H2.72998V12.253H27.314V9.38Z" fill="white"/>
<path d="M14.2969 14.3401H5.02588V15.1821H14.2969V14.3401Z" fill="white"/>
<path d="M14.2969 16.696H5.02588V17.537H14.2969V16.696Z" fill="white"/>
<path d="M14.2969 19.115H5.02588V19.957H14.2969V19.115Z" fill="white"/>
</svg>
