<svg width="20" height="20" viewBox="0 0 20 20" fill="none" xmlns="http://www.w3.org/2000/svg">
<path fill-rule="evenodd" clip-rule="evenodd" d="M6.80662 2.0371C6.96118 1.80527 7.22137 1.66602 7.5 1.66602H12.5C12.7786 1.66602 13.0388 1.80527 13.1934 2.0371L14.6127 4.16602H17.5C18.163 4.16602 18.7989 4.42941 19.2678 4.89825C19.7366 5.36709 20 6.00297 20 6.66602V15.8327C20 16.4957 19.7366 17.1316 19.2678 17.6004C18.7989 18.0693 18.163 18.3327 17.5 18.3327H2.5C1.83696 18.3327 1.20107 18.0693 0.732233 17.6004C0.263392 17.1316 0 16.4957 0 15.8327V6.66602C0 6.00297 0.263392 5.36709 0.732233 4.89825C1.20107 4.42941 1.83696 4.16602 2.5 4.16602H5.38735L6.80662 2.0371ZM7.94599 3.33268L6.52671 5.4616C6.37215 5.69343 6.11196 5.83268 5.83333 5.83268H2.5C2.27899 5.83268 2.06702 5.92048 1.91074 6.07676C1.75446 6.23304 1.66667 6.445 1.66667 6.66602V15.8327C1.66667 16.0537 1.75446 16.2657 1.91074 16.4219C2.06702 16.5782 2.27899 16.666 2.5 16.666H17.5C17.721 16.666 17.933 16.5782 18.0893 16.4219C18.2455 16.2657 18.3333 16.0537 18.3333 15.8327V6.66602C18.3333 6.445 18.2455 6.23304 18.0893 6.07676C17.933 5.92048 17.721 5.83268 17.5 5.83268H14.1667C13.888 5.83268 13.6278 5.69343 13.4733 5.4616L12.054 3.33268H7.94599Z" fill="#8098A3"/>
<path fill-rule="evenodd" clip-rule="evenodd" d="M10 8.33268C8.61929 8.33268 7.5 9.45197 7.5 10.8327C7.5 12.2134 8.61929 13.3327 10 13.3327C11.3807 13.3327 12.5 12.2134 12.5 10.8327C12.5 9.45197 11.3807 8.33268 10 8.33268ZM5.83333 10.8327C5.83333 8.5315 7.69881 6.66602 10 6.66602C12.3012 6.66602 14.1667 8.5315 14.1667 10.8327C14.1667 13.1339 12.3012 14.9993 10 14.9993C7.69881 14.9993 5.83333 13.1339 5.83333 10.8327Z" fill="#8098A3"/>
</svg>
