<svg width="31" height="31" viewBox="0 0 31 31" fill="none" xmlns="http://www.w3.org/2000/svg">
<path d="M11.775 17.0226C11.1489 16.5108 10.2057 16.2235 9.14258 16.5607V20.0408H12.6305C13.0611 18.7027 12.484 17.6038 11.775 17.0226Z" fill="white"/>
<path d="M19.0229 17.2064C18.4116 17.8176 17.9861 18.8472 18.3665 20.0409H21.8574V16.5509C20.6623 16.1694 19.6332 16.5961 19.0229 17.2064Z" fill="white"/>
<path d="M18.2246 21.8574H12.7754V25.4902H9.67473L15.5 31L21.3253 25.4902H18.2246V21.8574Z" fill="white"/>
<path d="M23.6738 5.50977V3.69336C23.3703 3.69336 6.65011 3.69336 7.32617 3.69336V5.50977H9.14258V14.6853C10.662 14.3898 12.0279 14.8831 12.9253 15.6171C14.0799 16.5622 14.8568 18.1985 14.4898 20.041H16.5235C16.2102 18.394 16.7887 16.8714 17.7386 15.9222C18.6872 14.9735 20.2102 14.3945 21.8574 14.7078V5.50977H23.6738ZM18.2246 6.41797C18.2246 9.58251 17.382 12.7754 15.5 12.7754C13.618 12.7754 12.7754 9.58251 12.7754 6.41797C12.7754 6.10809 12.7978 5.81056 12.8147 5.50977H14.6378C14.6191 5.80669 14.5918 6.08769 14.5918 6.41797C14.5918 8.92794 15.1638 10.4499 15.5 10.8765C15.8362 10.4499 16.4082 8.92794 16.4082 6.41797C16.4082 6.08769 16.381 5.80669 16.3622 5.50977H18.1853C18.2022 5.81056 18.2246 6.10809 18.2246 6.41797Z" fill="white"/>
<path d="M3.69336 0V9.14258H7.32617V7.32617H5.50977V1.81641H25.4902V7.32617H23.6738V9.14258H27.3066V0H3.69336Z" fill="white"/>
</svg>
