<svg width="26" height="26" viewBox="0 0 26 26" fill="none" xmlns="http://www.w3.org/2000/svg">
<path d="M22.3122 13.1353H21.0041C21.0041 8.8637 17.5314 5.39094 13.2609 5.39094V4.08399C18.2533 4.0806 22.3122 8.14177 22.3122 13.1353ZM13.2609 6.34145V7.6484C16.2866 7.6484 18.7455 10.1095 18.7433 13.1342L20.0514 13.1331C20.0514 9.38874 17.0075 6.34145 13.2609 6.34145ZM12.9983 0.169922C5.92382 0.169922 0.168701 5.92504 0.168701 13.0007C0.168701 20.0741 5.92382 25.8292 12.9983 25.8292C13.4374 25.8292 13.7904 25.475 13.7904 25.0405C13.7904 24.6003 13.4362 24.2473 12.9983 24.2473C6.79625 24.2473 1.75175 19.2005 1.75175 13.0018C1.75175 6.7986 6.79625 1.75411 12.9983 1.75411C19.2004 1.75411 24.2449 6.79973 24.2449 13.0018C24.2449 15.5931 22.8644 18.1617 20.8898 19.2503C20.1724 19.6441 19.395 19.8387 18.5656 19.8466C19.0646 19.5502 19.4946 19.1507 19.816 18.646C19.8794 18.551 19.9608 18.4673 20.0027 18.3632C20.2607 17.7442 20.2833 17.0415 20.4372 16.3852C20.6307 15.5501 16.7789 13.9161 16.4451 14.9605C16.3251 15.3475 16.1395 16.5685 15.8951 16.891C15.6824 17.1784 15.1483 17.0426 14.8156 16.7597C13.9375 16.0118 12.9576 14.913 12.0999 14.0451V14.0429C12.0784 14.0202 12.0512 13.9965 12.0286 13.9716C12.0037 13.9478 11.9799 13.9218 11.955 13.9003V13.9025C11.0871 13.0403 9.98725 12.0638 9.24042 11.1845C8.95753 10.8519 8.82061 10.3189 9.10803 10.1028C9.43052 9.85834 10.6526 9.67729 11.0396 9.55395C12.0818 9.22127 10.4501 5.36831 9.61157 5.56068C8.95866 5.71344 8.25596 5.73946 7.63587 5.9952C7.53063 6.04046 7.44916 6.1208 7.35411 6.18417C5.15662 7.57712 4.8726 10.9616 7.01804 13.4827C7.83502 14.448 8.68935 15.3804 9.56744 16.2924L9.56178 16.2947C9.58555 16.3184 9.61157 16.3422 9.63647 16.3659C9.66023 16.3897 9.68173 16.4146 9.70549 16.4406L9.71115 16.4361C10.6232 17.3131 11.7027 18.6076 13.4566 19.7776C17.1512 22.2467 19.9869 21.5564 21.6582 20.6421C24.5403 19.0534 25.8314 15.6621 25.8314 13.0063C25.8302 5.92504 20.074 0.169922 12.9983 0.169922Z" fill="white"/>
</svg>
