<svg width="31" height="31" viewBox="0 0 31 31" fill="none" xmlns="http://www.w3.org/2000/svg">
<path d="M26.371 9.3491V22.7381C26.371 23.9001 25.435 24.9451 24.27 24.9451H5.78503C4.62203 24.9451 3.67603 23.9001 3.67603 22.7381V9.3491C3.67603 8.1841 4.62303 7.3501 5.78503 7.3501H7.81603V8.5621C7.81603 9.3951 8.46203 10.0721 9.29503 10.0721C10.126 10.0721 10.774 9.3951 10.774 8.5621V7.3501H19.279V8.5621C19.279 9.3951 19.925 10.0721 20.758 10.0721C21.587 10.0721 22.236 9.3951 22.236 8.5621V7.3501H24.275C25.436 7.3501 26.371 8.1841 26.371 9.3491Z" fill="#D1AC00"/>
<path d="M5.54897 22.865V13.526H24.51V22.865H5.54897Z" fill="#D1AC00" stroke="white" stroke-width="0.2"/>
<path d="M9.39404 9.59605H9.14904C8.57904 9.59605 8.11304 9.13005 8.11304 8.56105V6.13505C8.11304 5.56705 8.57904 5.10205 9.14904 5.10205H9.39404C9.96104 5.10205 10.428 5.56805 10.428 6.13505V8.56105C10.428 9.13005 9.96204 9.59605 9.39404 9.59605Z" fill="#D1AC00"/>
<path d="M20.872 9.59605H20.629C20.062 9.59605 19.593 9.13005 19.593 8.56105V6.13505C19.593 5.56705 20.062 5.10205 20.629 5.10205H20.872C21.443 5.10205 21.908 5.56805 21.908 6.13505V8.56105C21.908 9.13005 21.443 9.59605 20.872 9.59605Z" fill="#D1AC00"/>
<path d="M9.751 21.57V20.615L10.625 19.826C12.102 18.51 12.815 17.748 12.837 16.957C12.837 16.408 12.505 15.971 11.727 15.971C11.144 15.971 10.636 16.264 10.284 16.532L9.835 15.399C10.345 15.015 11.134 14.702 12.048 14.702C13.575 14.702 14.416 15.599 14.416 16.826C14.416 17.958 13.596 18.859 12.619 19.732L11.995 20.253V20.277H14.541V21.576H9.75L9.751 21.57Z" fill="white"/>
<path d="M20.025 16.1151H17.408L17.263 17.1541C17.409 17.1331 17.533 17.1331 17.701 17.1331C18.347 17.1331 19 17.2791 19.48 17.6231C19.986 17.9651 20.299 18.5271 20.299 19.3161C20.299 20.5721 19.219 21.6851 17.402 21.6851C16.582 21.6851 15.896 21.4941 15.521 21.2991L15.801 20.1121C16.103 20.2581 16.717 20.4441 17.326 20.4441C17.986 20.4441 18.678 20.1311 18.678 19.4201C18.678 18.7191 18.128 18.2951 16.781 18.2951C16.404 18.2951 16.146 18.3161 15.871 18.3581L16.314 14.8151H20.033V16.1141H20.025V16.1151Z" fill="white"/>
</svg>
