<svg width="18" height="20" viewBox="0 0 18 20" fill="none" xmlns="http://www.w3.org/2000/svg">
<path fill-rule="evenodd" clip-rule="evenodd" d="M3.16602 4.16634C2.70578 4.16634 2.33268 4.53944 2.33268 4.99967V16.6663C2.33268 17.1266 2.70578 17.4997 3.16602 17.4997H14.8327C15.2929 17.4997 15.666 17.1266 15.666 16.6663V4.99967C15.666 4.53944 15.2929 4.16634 14.8327 4.16634H3.16602ZM0.666016 4.99967C0.666016 3.61896 1.7853 2.49967 3.16602 2.49967H14.8327C16.2134 2.49967 17.3327 3.61896 17.3327 4.99967V16.6663C17.3327 18.0471 16.2134 19.1663 14.8327 19.1663H3.16602C1.7853 19.1663 0.666016 18.0471 0.666016 16.6663V4.99967Z" fill="#00AFFF"/>
<path fill-rule="evenodd" clip-rule="evenodd" d="M12.3327 0.833008C12.7929 0.833008 13.166 1.2061 13.166 1.66634V4.99967C13.166 5.45991 12.7929 5.83301 12.3327 5.83301C11.8724 5.83301 11.4993 5.45991 11.4993 4.99967V1.66634C11.4993 1.2061 11.8724 0.833008 12.3327 0.833008Z" fill="#00AFFF"/>
<path fill-rule="evenodd" clip-rule="evenodd" d="M5.66602 0.833008C6.12625 0.833008 6.49935 1.2061 6.49935 1.66634V4.99967C6.49935 5.45991 6.12625 5.83301 5.66602 5.83301C5.20578 5.83301 4.83268 5.45991 4.83268 4.99967V1.66634C4.83268 1.2061 5.20578 0.833008 5.66602 0.833008Z" fill="#00AFFF"/>
<path fill-rule="evenodd" clip-rule="evenodd" d="M0.666016 8.33301C0.666016 7.87277 1.03911 7.49967 1.49935 7.49967H16.4993C16.9596 7.49967 17.3327 7.87277 17.3327 8.33301C17.3327 8.79324 16.9596 9.16634 16.4993 9.16634H1.49935C1.03911 9.16634 0.666016 8.79324 0.666016 8.33301Z" fill="#00AFFF"/>
</svg>
