<svg width="34" height="24" viewBox="0 0 34 24" fill="none" xmlns="http://www.w3.org/2000/svg">
<path d="M10 0H34V24H10L0 12L10 0Z" fill="#CECACA"/>
<path d="M25.471 7.52776C25.733 7.78776 25.733 8.21076 25.471 8.47076L17.471 16.4708C17.211 16.7328 16.789 16.7328 16.529 16.4708C16.268 16.2108 16.268 15.7888 16.529 15.5298L24.529 7.52976C24.789 7.26776 25.211 7.26776 25.471 7.52776Z" fill="white"/>
<path d="M16.529 7.52801C16.789 7.26801 17.211 7.26801 17.471 7.52801L25.471 15.528C25.733 15.79 25.733 16.212 25.471 16.47C25.211 16.731 24.789 16.731 24.53 16.47L16.53 8.47001C16.268 8.21101 16.268 7.78901 16.529 7.52801Z" fill="white"/>
</svg>
