<svg width="25" height="35" viewBox="0 0 25 35" fill="none" xmlns="http://www.w3.org/2000/svg">
<path d="M6.06375 30.3979L0 26.1283V17.5823V9.03635L5.99625 4.81484C9.2925 2.49472 12.0375 0.56587 12.0937 0.531548C12.1725 0.490363 13.5619 1.43763 18.2756 4.75306L24.3562 9.03635V17.5823V26.1283L18.2869 30.4048C14.9456 32.7523 12.195 34.6743 12.1669 34.6743C12.1444 34.6674 9.39375 32.7455 6.06375 30.3979ZM17.4431 28.6818L22.6406 25.0163V17.5823V10.1484L17.4431 6.48285C14.5856 4.47163 12.2175 2.82421 12.1781 2.82421C12.1387 2.82421 9.77062 4.47163 6.91312 6.48285L1.71562 10.1484V17.5823V25.0163L6.89062 28.675C9.73687 30.6862 12.105 32.3336 12.1556 32.3336C12.2062 32.3405 14.5856 30.6931 17.4431 28.6818Z" fill="white"/>
<path d="M8.01562 24.5083C5.88375 22.9982 4.10063 21.7352 4.06126 21.7077C4.01063 21.6734 4.78688 21.0899 6.345 19.9917L8.71312 18.3305L9.52875 18.9071L10.35 19.4837L8.84812 20.5408C8.02687 21.1243 7.35188 21.6254 7.35188 21.6597C7.3575 21.7009 8.07187 22.2294 8.94937 22.8472C9.82687 23.465 10.8562 24.1926 11.2331 24.4603L11.9194 24.9408L14.1862 23.3483C15.435 22.4697 16.4756 21.7283 16.5037 21.7009C16.5656 21.6322 17.1506 22.0509 10.1644 17.1361C6.80063 14.768 4.05563 12.7979 4.06126 12.7705C4.08938 12.6812 11.88 7.21042 11.9531 7.23102C12.0656 7.26534 19.8 12.7361 19.8 12.7842C19.8 12.8322 15.2156 16.0722 15.1369 16.0722C15.1087 16.0722 14.7262 15.8182 14.2931 15.5162L13.5 14.9533L14.2425 14.4316C14.6531 14.1365 15.3394 13.656 15.7669 13.3608C16.1887 13.0588 16.5375 12.7979 16.5375 12.7773C16.5375 12.7567 15.4969 12.0154 14.2256 11.123L11.9194 9.49622L9.63 11.1093C8.37 12.0017 7.32938 12.7361 7.3125 12.7567C7.27875 12.7979 6.95813 12.5645 10.2094 14.8572C11.7281 15.9212 14.5181 17.8912 16.4081 19.2297C18.3037 20.5614 19.8506 21.6597 19.8394 21.6734C19.8169 21.7009 11.9081 27.2609 11.9025 27.2541C11.9025 27.2541 10.1531 26.0185 8.01562 24.5083Z" fill="white"/>
</svg>
