<svg width="20" height="20" viewBox="0 0 20 20" fill="none" xmlns="http://www.w3.org/2000/svg">
<path d="M12.5971 5.51318C13.0714 6.00318 13.5186 6.4689 13.9843 6.95176C13.85 7.0889 8.81285 12.0446 6.43285 14.3718C6.27142 14.5318 6.10428 14.6989 5.90714 14.8189C5.47999 15.0832 5.05142 15.0346 4.69428 14.686C4.33857 14.336 4.28571 13.9146 4.54142 13.4746C4.62285 13.3318 4.73571 13.2032 4.85285 13.0875C7.36428 10.6246 12.5086 5.58747 12.5971 5.51318Z" fill="#D1AC00"/>
<path d="M16.2943 7.6659C16.2943 7.6659 13.4114 4.72019 11.9786 3.25019C12.3286 2.95304 12.6743 2.57733 13.0929 2.3159C13.85 1.84161 14.7671 1.97447 15.4671 2.62161C15.9286 3.04733 16.3629 3.5059 16.7957 3.96304C17.7543 4.97304 17.7986 6.14161 16.8329 7.14018C16.6429 7.3359 16.2943 7.6659 16.2943 7.6659Z" fill="#D1AC00"/>
<path d="M11.1943 4.05469C11.1943 4.05469 11.6943 4.51754 11.9372 4.74326C11.7386 4.93897 11.5872 5.07897 11.4429 5.22326C9.0686 7.5504 6.69146 9.87754 4.3186 12.2018C4.18146 12.3347 3.97574 12.5761 3.81146 12.6175C3.62146 12.669 3.42431 12.6318 3.28574 12.4904C3.18574 12.389 3.13146 12.1861 3.16431 11.9975C3.18574 11.8761 3.38574 11.6975 3.49003 11.5961C5.98431 9.15183 8.48146 6.70754 10.9772 4.26469C11.0386 4.20754 11.1943 4.05469 11.1943 4.05469Z" fill="#D1AC00"/>
<path d="M14.6843 7.61572C14.6843 7.61572 15.18 8.07715 15.4229 8.30429C15.2257 8.50144 15.0786 8.63715 14.9286 8.78287C12.5557 11.11 10.1814 13.4357 7.80572 15.7614C7.67 15.8957 7.46429 16.1372 7.30143 16.18C7.11143 16.2272 6.91286 16.1929 6.77143 16.0486C6.67143 15.9514 6.62143 15.7443 6.65286 15.56C6.67572 15.4372 6.87 15.2557 6.97858 15.1557C9.47572 12.7086 11.9729 10.2686 14.4657 7.82572C14.5243 7.76858 14.6843 7.61572 14.6843 7.61572Z" fill="#D1AC00"/>
<path d="M2.45144 13.2959C3.11859 13.4716 3.37859 13.7859 3.45002 14.4359C3.54002 15.2759 4.15716 15.7588 5.19144 15.9602C5.48716 16.0188 5.7343 16.2188 5.85716 16.4916C5.91716 16.623 5.98002 16.7645 6.04859 16.9202C4.44287 17.3059 2.88144 17.6802 1.20859 18.0816C1.63287 16.4402 2.04002 14.8745 2.45144 13.2959Z" fill="#D1AC00"/>
</svg>
