<svg width="45" height="45" viewBox="0 0 45 45" fill="none" xmlns="http://www.w3.org/2000/svg">
<path d="M20.0081 34.1661C19.7044 33.6711 9.06188 15.1649 9.07313 15.148C9.08438 15.1367 12.9825 15.1367 17.7356 15.1424L26.3813 15.1592L25.7906 16.0424L25.2 16.9311L18.9113 16.9424L12.6225 16.9592L16.92 24.5924L21.2119 32.2311L20.6269 33.2211C20.3006 33.7668 20.025 34.1887 20.0081 34.1661Z" fill="white"/>
<path d="M20.7281 26.6738C18.4106 22.6295 16.4644 19.2376 16.4081 19.142L16.3012 18.9563H17.505H18.7031L21.8081 24.4801C23.5125 27.5176 24.93 30.0151 24.9581 30.0207C24.9806 30.032 26.9381 26.6851 29.3063 22.5845L33.6094 15.1313H34.7794H35.9494L35.8819 15.2607C35.685 15.6263 25.065 33.902 25.0087 33.9582C24.9581 34.0145 23.985 32.3551 20.7281 26.6738Z" fill="white"/>
<path d="M24.4012 24.7218C24.0637 24.1874 23.7937 23.7205 23.7937 23.6868C23.7937 23.653 24.9244 21.673 26.3081 19.2824C27.6863 16.8918 29.0644 14.4787 29.3681 13.9218L29.9194 12.9093L21.3075 12.8812L12.6956 12.853L12.1331 11.8687C11.8294 11.3287 11.565 10.8505 11.5481 10.8168C11.5256 10.7605 13.7363 10.7437 22.4944 10.7437C28.53 10.7437 33.4688 10.7549 33.4688 10.7718C33.4688 10.8112 25.0875 25.6105 25.0425 25.6612C25.02 25.678 24.7331 25.2562 24.4012 24.7218Z" fill="white"/>
</svg>
