<svg width="96" height="96" viewBox="0 0 96 96" fill="none" xmlns="http://www.w3.org/2000/svg">
<path d="M38.5981 64.0001C40.7997 65.6001 43.9997 67.2001 47.9997 67.2001C51.9997 67.2001 55.1997 65.6001 57.4013 64.0001" stroke="#32AD78" stroke-width="4.43415" stroke-miterlimit="10" stroke-linecap="round" stroke-linejoin="round"/>
<path d="M63.9998 38.4001V44.8001" stroke="#32AD78" stroke-width="4.43415" stroke-miterlimit="10" stroke-linecap="round" stroke-linejoin="round"/>
<path d="M32.0002 38.4001V44.8001" stroke="#32AD78" stroke-width="4.43415" stroke-miterlimit="10" stroke-linecap="round" stroke-linejoin="round"/>
<path d="M47.9998 38.4001V51.2001C47.9998 52.9665 46.5662 54.4001 44.7998 54.4001" stroke="#32AD78" stroke-width="4.43415" stroke-miterlimit="10" stroke-linecap="round" stroke-linejoin="round"/>
<path d="M83.2006 28.8V19.2C83.2006 15.664 80.3366 12.8 76.8006 12.8H67.2006" stroke="#32AD78" stroke-width="4.43415" stroke-miterlimit="10" stroke-linecap="round" stroke-linejoin="round"/>
<path d="M28.8007 12.8H19.2007C15.6647 12.8 12.8007 15.664 12.8007 19.2V28.8" stroke="#32AD78" stroke-width="4.43415" stroke-miterlimit="10" stroke-linecap="round" stroke-linejoin="round"/>
<path d="M67.2006 83.2003H76.8006C80.3366 83.2003 83.2006 80.3363 83.2006 76.8003V67.2003" stroke="#32AD78" stroke-width="4.43415" stroke-miterlimit="10" stroke-linecap="round" stroke-linejoin="round"/>
<path d="M12.8003 67.2003V76.8003C12.8003 80.3363 15.6643 83.2003 19.2003 83.2003H28.8003" stroke="#32AD78" stroke-width="4.43415" stroke-miterlimit="10" stroke-linecap="round" stroke-linejoin="round"/>
</svg>
