<svg width="18" height="25" viewBox="0 0 18 25" fill="none" xmlns="http://www.w3.org/2000/svg">
<path d="M1 21H6.25" stroke="#7493FF" stroke-width="1.6" stroke-linecap="round"/>
<path d="M4.56569 17.4343C4.25327 17.1219 3.74673 17.1219 3.43431 17.4343C3.1219 17.7467 3.1219 18.2533 3.43431 18.5657L4.56569 17.4343ZM7 21L7.56569 21.5657C7.8781 21.2533 7.8781 20.7467 7.56569 20.4343L7 21ZM3.43431 23.4343C3.1219 23.7467 3.1219 24.2533 3.43431 24.5657C3.74673 24.8781 4.25327 24.8781 4.56569 24.5657L3.43431 23.4343ZM3.43431 18.5657L6.43431 21.5657L7.56569 20.4343L4.56569 17.4343L3.43431 18.5657ZM6.43431 20.4343L3.43431 23.4343L4.56569 24.5657L7.56569 21.5657L6.43431 20.4343Z" fill="#7493FF"/>
<path d="M4 14.1105V14.1105C4 12.0771 5.64841 10.4287 7.68182 10.4287H10.5H13C15.2091 10.4287 17 12.2196 17 14.4287V19.4287H11.4286" stroke="#7493FF" stroke-width="1.6" stroke-linecap="round" stroke-linejoin="round"/>
<ellipse cx="10.3153" cy="4.12871" rx="2.78571" ry="2.7" stroke="#7493FF" stroke-width="1.6" stroke-linecap="round"/>
</svg>
