<svg width="20" height="20" viewBox="0 0 20 20" fill="none" xmlns="http://www.w3.org/2000/svg">
    <path fill-rule="evenodd" clip-rule="evenodd"
        d="M9.99992 2.50016C5.85778 2.50016 2.49992 5.85803 2.49992 10.0002C2.49992 14.1423 5.85778 17.5002 9.99992 17.5002C14.1421 17.5002 17.4999 14.1423 17.4999 10.0002C17.4999 5.85803 14.1421 2.50016 9.99992 2.50016ZM0.833252 10.0002C0.833252 4.93755 4.93731 0.833496 9.99992 0.833496C15.0625 0.833496 19.1666 4.93755 19.1666 10.0002C19.1666 15.0628 15.0625 19.1668 9.99992 19.1668C4.93731 19.1668 0.833252 15.0628 0.833252 10.0002Z"
        fill="#003248" />
    <path fill-rule="evenodd" clip-rule="evenodd"
        d="M9.99992 9.16683C10.4602 9.16683 10.8333 9.53992 10.8333 10.0002V13.3335C10.8333 13.7937 10.4602 14.1668 9.99992 14.1668C9.53968 14.1668 9.16658 13.7937 9.16658 13.3335V10.0002C9.16658 9.53992 9.53968 9.16683 9.99992 9.16683Z"
        fill="#003248" />
    <path
        d="M10.8333 6.66683C10.8333 7.12707 10.4602 7.50016 9.99992 7.50016C9.53968 7.50016 9.16658 7.12707 9.16658 6.66683C9.16658 6.20659 9.53968 5.8335 9.99992 5.8335C10.4602 5.8335 10.8333 6.20659 10.8333 6.66683Z"
        fill="#003248" />
</svg>
