<svg width="35" height="28" viewBox="0 0 35 28" fill="none" xmlns="http://www.w3.org/2000/svg">
<path d="M23.7248 19.6175V22.5837C23.7248 23.058 23.3398 23.443 22.8673 23.443H10.8448C10.3705 23.443 9.9873 23.0545 9.9873 22.5837V5.41275C9.9873 4.9385 10.3723 4.55525 10.8448 4.55525H22.8638C23.338 4.55525 23.7248 4.94025 23.7248 5.41275V8.379L25.438 9.86475V5.41275C25.438 3.99175 24.2848 2.8385 22.862 2.8385H10.8448C9.42205 2.8385 8.2688 3.99175 8.2688 5.41275V22.5855C8.2688 24.0083 9.42205 25.1632 10.8448 25.1632H22.8638C24.2865 25.1632 25.4415 24.01 25.4415 22.5855V18.1318L23.7248 19.6175Z" fill="white"/>
<path d="M20.2879 19.579C20.2879 19.579 19.4356 19.8222 19.4356 18.7232C19.4356 18.4712 19.4356 17.6435 19.4356 16.5725H14.2801C13.8059 16.5725 13.4209 16.1857 13.4209 15.7202V12.2798C13.4209 11.809 13.8059 11.4257 14.2801 11.4257H19.4304C19.4304 10.3967 19.4304 9.57425 19.4304 9.25225C19.4304 8.099 20.2844 8.41925 20.2844 8.41925L26.7279 13.9982L20.2879 19.579Z" fill="white"/>
</svg>
