<svg width="20" height="20" viewBox="0 0 20 20" fill="none" xmlns="http://www.w3.org/2000/svg">
<path fill-rule="evenodd" clip-rule="evenodd" d="M3.33398 10.0003C3.33398 9.54009 3.63246 9.16699 4.00065 9.16699H16.0007C16.3688 9.16699 16.6673 9.54009 16.6673 10.0003C16.6673 10.4606 16.3688 10.8337 16.0007 10.8337H4.00065C3.63246 10.8337 3.33398 10.4606 3.33398 10.0003Z" fill="#00AFFF"/>
<path fill-rule="evenodd" clip-rule="evenodd" d="M1.66602 5.00033C1.66602 4.54009 2.03911 4.16699 2.49935 4.16699H17.4993C17.9596 4.16699 18.3327 4.54009 18.3327 5.00033C18.3327 5.46056 17.9596 5.83366 17.4993 5.83366H2.49935C2.03911 5.83366 1.66602 5.46056 1.66602 5.00033Z" fill="#00AFFF"/>
<path fill-rule="evenodd" clip-rule="evenodd" d="M5.83398 15.0003C5.83398 14.5401 6.02053 14.167 6.25065 14.167H13.7507C13.9808 14.167 14.1673 14.5401 14.1673 15.0003C14.1673 15.4606 13.9808 15.8337 13.7507 15.8337H6.25065C6.02053 15.8337 5.83398 15.4606 5.83398 15.0003Z" fill="#00AFFF"/>
</svg>
