<svg width="31" height="31" viewBox="0 0 31 31" fill="none" xmlns="http://www.w3.org/2000/svg">
<path d="M20.713 9.32996C20.713 9.42796 20.709 9.52496 20.701 9.61996C20.699 9.71796 20.691 9.80996 20.683 9.90796C20.663 10.051 20.645 10.191 20.62 10.329C20.595 10.481 20.557 10.629 20.516 10.775C20.445 11.06 20.347 11.332 20.238 11.599C20.217 11.635 20.198 11.673 20.182 11.708C20.119 11.841 20.057 11.972 19.988 12.096C19.965 12.133 19.943 12.169 19.922 12.208C19.663 12.65 19.335 13.058 18.965 13.411C18.927 13.449 18.896 13.478 18.856 13.511C18.793 13.568 18.731 13.623 18.668 13.675C18.621 13.714 18.583 13.746 18.538 13.779C18.441 13.854 18.346 13.925 18.243 13.996C18.231 14.003 18.215 14.016 18.203 14.028C18.07 14.114 17.931 14.2 17.793 14.278C17.668 14.349 17.532 14.412 17.399 14.473C17.391 14.473 17.382 14.48 17.371 14.48C17.11 14.598 16.84 14.699 16.556 14.777C16.5 14.793 16.438 14.809 16.373 14.822C16.09 14.885 15.799 14.934 15.502 14.958C15.404 14.965 15.309 14.969 15.213 14.975C15.165 14.975 15.113 14.975 15.066 14.975C15.019 14.975 14.97 14.975 14.92 14.975C14.824 14.967 14.73 14.964 14.632 14.955C14.332 14.931 14.044 14.882 13.761 14.818C13.698 14.804 13.637 14.79 13.581 14.774C13.298 14.697 13.023 14.595 12.765 14.478C12.758 14.478 12.749 14.471 12.74 14.471C12.617 14.417 12.503 14.357 12.388 14.297C12.232 14.213 12.084 14.12 11.936 14.025C11.919 14.015 11.907 14.002 11.892 13.993C11.793 13.923 11.693 13.852 11.598 13.778C11.553 13.745 11.514 13.712 11.469 13.673C11.403 13.622 11.34 13.567 11.28 13.509C11.21 13.447 11.145 13.385 11.078 13.319C10.748 12.987 10.457 12.612 10.214 12.209C10.194 12.17 10.172 12.133 10.148 12.096C10.076 11.972 10.015 11.841 9.95203 11.709C9.93303 11.673 9.91503 11.635 9.89603 11.599C9.78403 11.331 9.68703 11.059 9.61203 10.775C9.57603 10.629 9.54003 10.482 9.51403 10.329C9.48903 10.189 9.46803 10.048 9.45103 9.90796C9.44203 9.80996 9.43403 9.71496 9.43103 9.61696C9.42803 9.52296 9.42603 9.42696 9.42603 9.32996C9.42603 9.23296 9.44303 9.13496 9.44903 9.03696C9.44903 8.98196 9.47203 8.91996 9.47203 8.86496V8.85996C9.47203 8.82396 9.46503 8.78496 9.46703 8.74996C9.47203 8.71396 9.46703 8.67896 9.47203 8.64296C9.48603 8.53596 9.49503 8.43096 9.51303 8.32596C9.54203 8.17296 9.57403 8.02596 9.61303 7.87796C9.68603 7.59596 9.78303 7.32196 9.89803 7.05896C9.90703 7.03796 9.91503 7.02196 9.92403 7.00396C9.93403 6.98296 9.94203 6.96396 9.94903 6.94396C10.012 6.81496 10.073 6.68596 10.145 6.55996C10.168 6.52296 10.19 6.48496 10.21 6.44796C10.473 6.00396 10.802 5.59996 11.168 5.24396C11.207 5.21096 11.241 5.17596 11.277 5.14396C11.34 5.08696 11.401 5.03196 11.466 4.98096C11.511 4.94496 11.55 4.90996 11.595 4.87696C11.69 4.79996 11.789 4.72996 11.888 4.66196C11.903 4.65296 11.916 4.64296 11.933 4.63196C12.186 4.46296 12.455 4.31396 12.735 4.18796C12.745 4.18196 12.754 4.17996 12.76 4.17696C13.02 4.05796 13.293 3.96096 13.578 3.88296C13.636 3.86696 13.696 3.85096 13.758 3.83896C14.04 3.76896 14.331 3.72296 14.629 3.70196C14.729 3.69396 14.821 3.69096 14.919 3.68696C14.969 3.68396 15.02 3.68396 15.065 3.68396C15.111 3.68396 15.164 3.68396 15.212 3.68696C15.308 3.68896 15.403 3.69196 15.501 3.70196C15.797 3.72296 16.088 3.77096 16.372 3.83896C16.433 3.85096 16.495 3.86696 16.555 3.88296C16.839 3.96096 17.111 4.05796 17.37 4.17596C17.383 4.17896 17.391 4.18096 17.398 4.18696C17.678 4.31496 17.95 4.46196 18.202 4.63096C18.218 4.64196 18.234 4.65096 18.242 4.66096C18.348 4.72996 18.443 4.79996 18.54 4.87596C18.585 4.90996 18.623 4.94296 18.67 4.97896C18.733 5.02996 18.795 5.08596 18.858 5.14296C18.893 5.17496 18.929 5.20896 18.967 5.24296C19.335 5.59696 19.665 6.00296 19.924 6.44796C19.945 6.48696 19.967 6.52196 19.99 6.56096C20.059 6.68796 20.123 6.81796 20.184 6.94596C20.2 6.98496 20.221 7.02096 20.24 7.05996C20.351 7.32496 20.447 7.59896 20.518 7.87896C20.556 8.02596 20.596 8.17596 20.622 8.32696C20.645 8.46796 20.665 8.60796 20.685 8.74896C20.685 8.79096 20.693 8.83696 20.693 8.88196C20.701 8.93196 20.701 8.98596 20.703 9.03396C20.709 9.13296 20.713 9.23096 20.713 9.32996Z" fill="white"/>
<path d="M9.34302 8.80591C9.34602 8.80891 9.35002 8.81291 9.35802 8.81691C9.38202 8.83091 9.40302 8.84391 9.44202 8.85991C9.43502 8.85591 9.42802 8.85191 9.42402 8.84791C9.39602 8.83291 9.36402 8.82091 9.34302 8.80591Z" fill="white"/>
<path d="M9.34302 8.80591C9.36402 8.81891 9.39802 8.83191 9.42402 8.84791C9.40302 8.83791 9.38202 8.82591 9.35802 8.81791C9.35002 8.81291 9.34602 8.80891 9.34302 8.80591Z" fill="white"/>
<path d="M24.3959 20.3729V26.2219C24.3959 26.3379 24.4029 26.3629 24.2849 26.3629H5.84895C5.73495 26.3629 5.63195 26.3409 5.63195 26.2219V20.3729C5.63195 20.2789 5.62695 20.1889 5.63095 20.0989C5.69895 18.7029 6.25595 17.4429 7.12695 16.4979C7.15295 16.4629 7.17795 16.4349 7.20295 16.4089C7.64095 15.9569 8.14595 15.5799 8.70995 15.2999C8.73895 15.2829 8.77295 15.2699 8.81195 15.2529C8.96195 15.1759 9.12495 15.1119 9.28395 15.0569C9.31995 15.0429 9.35895 15.0299 9.39295 15.0179C9.53895 14.9719 9.68595 14.9309 9.83495 14.8909C10.0179 15.0709 10.2099 15.2369 10.4029 15.3929C10.9119 15.7899 11.4649 16.1189 12.0509 16.3779C12.1599 16.4269 12.2739 16.4759 12.3859 16.5179C12.8159 16.6809 13.2599 16.8099 13.7139 16.8929C14.1509 16.9759 14.6059 17.0169 15.0599 17.0169C15.5809 17.0169 16.0949 16.9719 16.5949 16.8619C16.6579 16.8449 16.7199 16.8239 16.7829 16.8239C16.8779 16.8239 16.9709 16.8239 17.0639 16.8239C17.3059 16.8239 17.5459 16.6379 17.7809 16.5429C17.8799 16.5059 17.9689 16.4199 18.0619 16.3809C18.5219 16.1759 18.9559 15.9019 19.3609 15.6009C19.4039 15.6009 19.4539 15.5559 19.4969 15.5229C19.7629 15.3269 20.0199 15.1229 20.2649 14.8879C22.5779 15.4249 24.2969 17.5449 24.4139 20.0919C24.4279 20.1819 24.3959 20.2789 24.3959 20.3729Z" fill="white"/>
</svg>
