<svg width="18" height="24" viewBox="0 0 18 24" fill="none" xmlns="http://www.w3.org/2000/svg">
<path d="M17 20H11.75" stroke="#7493FF" stroke-width="1.6" stroke-linecap="round"/>
<path d="M13.4343 16.4343C13.7467 16.1219 14.2533 16.1219 14.5657 16.4343C14.8781 16.7467 14.8781 17.2533 14.5657 17.5657L13.4343 16.4343ZM11 20L10.4343 20.5657C10.1219 20.2533 10.1219 19.7467 10.4343 19.4343L11 20ZM14.5657 22.4343C14.8781 22.7467 14.8781 23.2533 14.5657 23.5657C14.2533 23.8781 13.7467 23.8781 13.4343 23.5657L14.5657 22.4343ZM14.5657 17.5657L11.5657 20.5657L10.4343 19.4343L13.4343 16.4343L14.5657 17.5657ZM11.5657 19.4343L14.5657 22.4343L13.4343 23.5657L10.4343 20.5657L11.5657 19.4343Z" fill="#7493FF"/>
<path d="M14 13.6818V13.6818C14 11.6484 12.3516 10 10.3182 10H7.5H5C2.79086 10 1 11.7909 1 14V19H6.57143" stroke="#7493FF" stroke-width="1.6" stroke-linecap="round" stroke-linejoin="round"/>
<ellipse rx="2.78571" ry="2.7" transform="matrix(-1 0 0 1 7.68474 3.7)" stroke="#7493FF" stroke-width="1.6" stroke-linecap="round"/>
</svg>
