<svg width="25" height="29" viewBox="0 0 25 29" fill="none" xmlns="http://www.w3.org/2000/svg">
<path d="M10.6312 27.6383C9.80999 27.1602 9.11812 26.7608 9.08437 26.7495C9.05624 26.7383 9.07874 26.6595 9.13499 26.5751C9.18562 26.4907 9.22499 26.412 9.21374 26.4007C9.20249 26.3895 7.89187 25.63 6.3 24.7131L3.40875 23.0423L3.29062 23.1886L3.17812 23.3292L1.59187 22.4179L0 21.5066V19.6952V17.8782H0.196875H0.39375V14.6154V11.3526H0.196875H0V9.42871V7.49918L1.53562 6.61598L3.06562 5.73278L3.18375 5.87905L3.30187 6.02531L6.22125 4.33767C8.06062 3.27446 9.13499 2.6219 9.12937 2.57128C9.12374 2.52627 9.10687 2.44189 9.08437 2.38001C9.05624 2.28438 9.24749 2.15499 10.5244 1.42368C11.3344 0.962395 12.0375 0.557361 12.0937 0.534859C12.1669 0.495481 12.5719 0.703623 13.7756 1.39555C14.6419 1.89622 15.3562 2.32938 15.3562 2.35751C15.3562 2.38564 15.3225 2.45877 15.2887 2.52065C15.2437 2.59378 15.2381 2.65003 15.2719 2.67816C15.3731 2.76817 20.925 5.95218 20.9812 5.95218C21.0094 5.95218 21.0656 5.8903 21.105 5.81154L21.1781 5.6709L22.7644 6.58785L24.3562 7.49918V9.34433V11.1839H24.1594H23.9625V14.5029V17.8219H24.1594H24.3562V19.667V21.5066L22.8206 22.3898L21.2906 23.273L21.1725 23.1267L21.0487 22.9804L18.1912 24.6287C16.6162 25.5344 15.2944 26.3107 15.2494 26.3501C15.1762 26.412 15.1762 26.4457 15.2437 26.5695C15.2831 26.6482 15.3056 26.7214 15.2944 26.7326C15.2212 26.7945 12.2062 28.5103 12.1669 28.5103C12.1444 28.5046 11.4525 28.1165 10.6312 27.6383ZM11.9531 24.6287H12.15V19.8414C12.15 17.2143 12.1331 15.071 12.1106 15.0823C12.0825 15.0935 11.4975 15.4255 10.8112 15.8249C9.80437 16.3987 9.53999 16.528 9.50062 16.4662C9.47249 16.4212 9.42749 16.3537 9.39937 16.3143C9.36562 16.2524 8.65124 16.6406 6.44625 17.9119C3.88687 19.3914 3.54375 19.6052 3.57187 19.7064C3.59437 19.7683 3.61125 19.8527 3.61687 19.8921C3.6225 19.9314 3.1275 20.2577 2.49187 20.6234C1.86187 20.9834 1.35 21.2928 1.35 21.3097C1.35562 21.3266 1.86187 21.6247 2.475 21.9791C3.09375 22.3335 3.6 22.6373 3.6 22.6598C3.6 22.6767 3.555 22.7498 3.50437 22.8286C3.45375 22.9017 3.43125 22.9692 3.465 22.9804C3.49312 22.9917 4.80375 23.7455 6.38437 24.6568L9.25312 26.3163L9.36562 26.1701L9.48374 26.0182L10.6087 26.6707L11.7281 27.3177L11.745 25.9732L11.7562 24.6287H11.9531ZM13.7644 26.6595C14.355 26.3163 14.8612 26.0351 14.8894 26.0351C14.9175 26.0351 14.9737 26.097 15.0187 26.1757L15.1031 26.3163L18 24.64C19.5919 23.723 20.9306 22.9467 20.97 22.9242C21.0262 22.8848 21.0206 22.8511 20.9531 22.7554C20.9081 22.6879 20.8687 22.6148 20.8687 22.5979C20.8687 22.5754 21.3637 22.2716 21.9656 21.9285C22.5675 21.5797 23.0625 21.2816 23.0625 21.2591C23.0625 21.2422 22.5337 20.9215 21.8812 20.5559L20.7056 19.8808L20.7956 19.7289C20.8519 19.6389 20.88 19.5602 20.8631 19.5489C20.7731 19.4758 15.0525 16.2468 15.0131 16.2468C14.985 16.2468 14.9625 16.2693 14.9625 16.2918C14.9625 16.3199 14.9287 16.3818 14.8894 16.438C14.8275 16.528 14.715 16.4718 13.5956 15.8249C12.9206 15.4367 12.33 15.0992 12.2906 15.0823C12.2175 15.0598 12.2062 15.6786 12.2062 19.8414V24.6287H12.4031H12.6V25.9844C12.6 26.727 12.6169 27.3233 12.645 27.312C12.6675 27.2952 13.1681 27.0026 13.7644 26.6595ZM2.08125 19.9033L3.23437 19.2339L3.35812 19.3802L3.47625 19.5264L6.37875 17.8557C7.97624 16.9331 9.28124 16.1455 9.28124 16.1061C9.28124 16.0611 9.25312 16.0105 9.22499 15.9936C9.19124 15.9767 9.16874 15.9261 9.16874 15.8867C9.16874 15.8474 9.73687 15.4873 10.4344 15.0879C11.5087 14.4691 11.6831 14.351 11.6044 14.2947C11.5594 14.2554 9.70312 13.1978 7.4925 11.9377L3.47062 9.64811L3.3525 9.79437L3.23437 9.935L2.05312 9.26557L0.871874 8.59614L0.854999 9.97438L0.843749 11.3526H0.674999H0.50625V14.6154V17.8782H0.674999H0.843749V19.2283C0.843749 19.9708 0.860624 20.5784 0.888749 20.5784C0.911249 20.5784 1.44562 20.2746 2.08125 19.9033ZM23.5125 19.1439V17.8219H23.6812H23.85V14.5029V11.1839H23.6812H23.5125V9.86187C23.5125 9.13619 23.49 8.53989 23.4675 8.53989C23.445 8.53989 22.9837 8.79304 22.4437 9.10806C21.0431 9.91813 21.1612 9.86187 21.0825 9.69311C21.0487 9.61435 20.9981 9.55247 20.9756 9.55247C20.9081 9.55247 12.7406 14.2722 12.7237 14.3229C12.7181 14.3454 13.2806 14.6941 13.9725 15.0935L15.2381 15.8192L15.1537 15.9824C15.1031 16.0724 15.075 16.1511 15.0862 16.1568C15.165 16.2243 20.88 19.4533 20.9137 19.4533C20.9362 19.4533 20.9925 19.3914 21.0375 19.3126L21.1219 19.1776L22.2469 19.8189C22.8656 20.1677 23.4056 20.4602 23.445 20.4602C23.4956 20.4659 23.5125 20.1677 23.5125 19.1439ZM11.7562 12.7027V11.1839H11.9531H12.15V7.83671V4.48956H11.9531H11.7562L11.745 3.08882L11.7281 1.68808L10.6594 2.30688C10.0744 2.65003 9.54562 2.94256 9.49499 2.95381C9.43874 2.97068 9.37687 2.93131 9.32624 2.83567L9.25312 2.69504L6.35625 4.3658C4.76437 5.28275 3.42562 6.05906 3.38625 6.08719C3.32437 6.12094 3.33 6.15469 3.3975 6.2672C3.44812 6.34033 3.4875 6.40784 3.4875 6.42472C3.4875 6.43597 2.97 6.74537 2.34 7.11102C1.70437 7.47668 1.19812 7.7917 1.20937 7.81421C1.22625 7.83108 1.7775 8.16298 2.44687 8.53989C3.11062 8.91679 3.65625 9.23745 3.65625 9.25432C3.65625 9.26557 3.61687 9.33308 3.56625 9.40621C3.49875 9.51872 3.49312 9.55247 3.555 9.58623C3.83625 9.76624 11.6831 14.2216 11.7169 14.2216C11.7394 14.2216 11.7562 13.5409 11.7562 12.7027ZM16.785 11.8477C19.0462 10.5426 20.9081 9.46809 20.9194 9.46246C20.9306 9.45121 20.8969 9.37808 20.8406 9.2937C20.7619 9.16994 20.7562 9.13619 20.8181 9.09681C20.8631 9.06868 21.3862 8.76491 21.9825 8.42175C22.5787 8.07298 23.0569 7.7692 23.0512 7.7467C23.04 7.71857 22.5394 7.40917 21.9375 7.06039C21.24 6.65536 20.8462 6.39659 20.8519 6.34596C20.8575 6.30096 20.8744 6.21095 20.8912 6.14907C20.9194 6.05344 20.5594 5.82842 18.0506 4.38267C15.795 3.08882 15.165 2.74567 15.1256 2.80755C15.0975 2.85255 15.0525 2.92005 15.0244 2.96506C14.985 3.02694 14.7262 2.89755 13.8037 2.36876L12.6281 1.68808L12.6112 3.08882L12.6 4.48956H12.4031H12.2062V7.83671V11.1839H12.4031H12.6V12.7027C12.6 13.5409 12.6169 14.2216 12.6337 14.2216C12.6562 14.2216 14.5181 13.1528 16.785 11.8477Z" fill="white"/>
</svg>
