<svg width="20" height="20" viewBox="0 0 20 20" fill="none" xmlns="http://www.w3.org/2000/svg">
<circle cx="10" cy="10" r="9" fill="#FED603" stroke="white" stroke-width="2" stroke-linecap="round" stroke-linejoin="round"/>
<path fill-rule="evenodd" clip-rule="evenodd" d="M10 5.5C7.51472 5.5 5.5 7.51472 5.5 10C5.5 12.4853 7.51472 14.5 10 14.5C12.4853 14.5 14.5 12.4853 14.5 10C14.5 7.51472 12.4853 5.5 10 5.5ZM4.5 10C4.5 6.96243 6.96243 4.5 10 4.5C13.0376 4.5 15.5 6.96243 15.5 10C15.5 13.0376 13.0376 15.5 10 15.5C6.96243 15.5 4.5 13.0376 4.5 10Z" fill="white"/>
<path fill-rule="evenodd" clip-rule="evenodd" d="M10 6.5C10.2761 6.5 10.5 6.72386 10.5 7V9.69098L12.2236 10.5528C12.4706 10.6763 12.5707 10.9766 12.4472 11.2236C12.3237 11.4706 12.0234 11.5707 11.7764 11.4472L9.77639 10.4472C9.607 10.3625 9.5 10.1894 9.5 10V7C9.5 6.72386 9.72386 6.5 10 6.5Z" fill="white"/>
</svg>
