<svg width="20" height="20" viewBox="0 0 20 20" fill="none" xmlns="http://www.w3.org/2000/svg">
<path fill-rule="evenodd" clip-rule="evenodd" d="M0.833374 10C0.833374 9.53976 1.20647 9.16667 1.66671 9.16667H18.3334C18.7936 9.16667 19.1667 9.53976 19.1667 10C19.1667 10.4602 18.7936 10.8333 18.3334 10.8333H1.66671C1.20647 10.8333 0.833374 10.4602 0.833374 10Z" fill="#8098A3"/>
<path fill-rule="evenodd" clip-rule="evenodd" d="M6.03337 2.5L13.9667 2.5C14.4318 2.50025 14.8881 2.63024 15.2833 2.87535C15.6783 3.12025 15.9971 3.47037 16.2041 3.8864C16.2043 3.88677 16.2045 3.88713 16.2046 3.8875L19.0785 9.62689C19.1365 9.74272 19.1667 9.87047 19.1667 10V15C19.1667 15.663 18.9033 16.2989 18.4345 16.7678C17.9656 17.2366 17.3298 17.5 16.6667 17.5H3.33337C2.67033 17.5 2.03445 17.2366 1.56561 16.7678C1.09677 16.2989 0.833374 15.663 0.833374 15V10C0.833374 9.87047 0.863571 9.74272 0.921568 9.62689L3.79543 3.8875C3.79563 3.88709 3.79584 3.88669 3.79604 3.88628C4.00303 3.4703 4.32185 3.12022 4.71674 2.87535C5.11201 2.63024 5.56827 2.50025 6.03337 2.5ZM4.54171 4.25833L5.28685 4.63144L2.50004 10.197V15C2.50004 15.221 2.58784 15.433 2.74412 15.5893C2.9004 15.7455 3.11236 15.8333 3.33337 15.8333H16.6667C16.8877 15.8333 17.0997 15.7455 17.256 15.5893C17.4122 15.433 17.5 15.221 17.5 15V10.197L14.7132 4.63144L14.7121 4.62917C14.6431 4.49033 14.5368 4.37349 14.405 4.29178C14.2733 4.21011 14.1214 4.16678 13.9664 4.16667H6.03366C5.87868 4.16678 5.7268 4.21011 5.59508 4.29178C5.46333 4.37349 5.35697 4.49033 5.28798 4.62917L4.54171 4.25833Z" fill="#8098A3"/>
</svg>
