<svg width="38" height="38" viewBox="0 0 38 38" fill="none" xmlns="http://www.w3.org/2000/svg">
<path d="M9.68515 26.239C9.5759 26.0538 9.33127 25.9896 9.14365 26.0965L8.15327 26.6713V25.5265C8.15327 25.3104 7.97515 25.1346 7.75902 25.1346C7.5429 25.1346 7.36715 25.3104 7.36715 25.5265V26.6713L6.3744 26.0965C6.18677 25.9873 5.93977 26.0514 5.83052 26.239C5.72365 26.4243 5.78302 26.6736 5.9754 26.7829L6.9729 27.3624L5.9754 27.9443C5.7854 28.0559 5.72602 28.2981 5.83052 28.4858C5.93977 28.6758 6.1844 28.7351 6.3744 28.633L7.36715 28.0583V29.2006C7.36715 29.4168 7.5429 29.5925 7.75902 29.5925C7.97515 29.5925 8.15327 29.4168 8.15327 29.2006V28.0583L9.14602 28.633C9.33127 28.7375 9.57827 28.6781 9.68752 28.4858C9.79677 28.3005 9.73265 28.0559 9.54502 27.9443L8.54515 27.3624L9.54502 26.7829C9.73027 26.6665 9.79915 26.4243 9.68515 26.239Z" fill="white"/>
<path d="M13.3286 28.4811C13.4354 28.6687 13.6801 28.7304 13.8701 28.6236L14.8604 28.0488V29.1912C14.8604 29.4097 15.0362 29.5854 15.2547 29.5854C15.4732 29.5854 15.6489 29.4097 15.6489 29.1912V28.0488L16.6417 28.6236C16.8269 28.7328 17.0739 28.6711 17.1832 28.4811C17.2924 28.2911 17.2283 28.0464 17.0407 27.9372L16.0432 27.3601L17.0407 26.7782C17.2259 26.6666 17.2901 26.4243 17.1832 26.2367C17.0739 26.0443 16.8293 25.9849 16.6417 26.0894L15.6489 26.6642V25.5218C15.6489 25.3033 15.4732 25.1276 15.2547 25.1276C15.0362 25.1276 14.8604 25.3033 14.8604 25.5218V26.6642L13.8701 26.0966C13.6824 25.9873 13.4354 26.0514 13.3286 26.2391C13.2169 26.4243 13.2811 26.6737 13.4711 26.7829L14.4709 27.3624L13.4711 27.9372C13.2834 28.0488 13.2169 28.2911 13.3286 28.4811Z" fill="white"/>
<path d="M12.6184 31.4664V32.1623C12.6184 32.3262 12.7585 32.4639 12.9224 32.4639H17.5917C17.7579 32.4639 17.8933 32.3262 17.8933 32.1623V31.4664C17.8933 31.3025 17.7579 31.1648 17.5917 31.1648H12.9224C12.7538 31.1648 12.6184 31.3025 12.6184 31.4664Z" fill="white"/>
<path d="M23.997 12.0271H23.9637V10.4786C23.9637 7.78293 21.7573 5.49105 19.0665 5.53618C16.4468 5.57893 14.3283 7.72118 14.3283 10.3527V10.5023C14.3283 10.7256 14.5088 10.9061 14.7321 10.9061H16.0265C16.2497 10.9061 16.4326 10.7256 16.4326 10.5023V10.4548C16.4326 9.00843 17.5203 7.73543 18.9667 7.6428C20.5437 7.54543 21.8571 8.79468 21.8571 10.3456V12.0247H17.8647V12.0271H14.1787C13.4923 12.0532 12.939 12.6018 12.939 13.2953V20.3063C12.939 21.0069 13.509 21.5793 14.2096 21.5793H23.9922C24.6952 21.5793 25.2652 21.0069 25.2652 20.3063V13.2977C25.2723 12.5994 24.7 12.0271 23.997 12.0271ZM19.8621 17.1191C19.7647 17.1832 19.7386 17.2592 19.7386 17.3779C19.7433 17.8886 19.7433 18.3992 19.7386 18.9169C19.7481 19.1402 19.6412 19.3444 19.4465 19.4371C18.9952 19.6674 18.544 19.3444 18.544 18.9169C18.544 18.9169 18.544 18.9169 18.544 18.9146C18.544 18.3968 18.544 17.8791 18.544 17.3684C18.544 17.2663 18.5202 17.1927 18.4323 17.1262C17.9621 16.7842 17.8101 16.1952 18.0428 15.6798C18.2685 15.1763 18.8218 14.8794 19.3443 14.9839C19.9286 15.1027 20.3323 15.5753 20.3371 16.1524C20.3537 16.5538 20.1875 16.8863 19.8621 17.1191Z" fill="white"/>
<path d="M20.114 31.4664V32.1623C20.114 32.3262 20.2518 32.4639 20.4156 32.4639H25.0825C25.2488 32.4639 25.3865 32.3262 25.3865 32.1623V31.4664C25.3865 31.3025 25.2488 31.1648 25.0825 31.1648H20.4156C20.2494 31.1648 20.114 31.3025 20.114 31.4664Z" fill="white"/>
<path d="M20.8192 28.4811C20.9308 28.6687 21.1754 28.7304 21.363 28.6236L22.3558 28.0488V29.1912C22.3558 29.4097 22.5315 29.5854 22.75 29.5854C22.9662 29.5854 23.1419 29.4097 23.1419 29.1912V28.0488L24.1323 28.6236C24.3223 28.7328 24.5645 28.6711 24.6762 28.4811C24.7854 28.2911 24.7213 28.0464 24.5313 27.9372L23.5338 27.3601L24.5289 26.7782C24.7165 26.6666 24.7807 26.4243 24.6738 26.2367C24.5622 26.0443 24.3223 25.9849 24.1299 26.0894L23.1395 26.6642V25.5218C23.1395 25.3033 22.9638 25.1276 22.7477 25.1276C22.5292 25.1276 22.3534 25.3033 22.3534 25.5218V26.6642L21.3607 26.0894C21.1754 25.9826 20.9284 26.0419 20.8168 26.2367C20.7099 26.4219 20.774 26.6666 20.9617 26.7782L21.9568 27.3601L20.9617 27.9372C20.7764 28.0488 20.7123 28.2911 20.8192 28.4811Z" fill="white"/>
<path d="M32.5706 31.1648H27.9014C27.7399 31.1648 27.6045 31.3025 27.6045 31.4664V32.1623C27.6045 32.3262 27.7399 32.4639 27.9014 32.4639H32.5706C32.7369 32.4639 32.8746 32.3262 32.8746 32.1623V31.4664C32.8746 31.3025 32.7369 31.1648 32.5706 31.1648Z" fill="white"/>
<path d="M5.42687 32.4639H10.0961C10.2624 32.4639 10.3977 32.3262 10.3977 32.1623V31.4664C10.3977 31.3025 10.2624 31.1648 10.0961 31.1648H5.42687C5.26062 31.1648 5.12524 31.3025 5.12524 31.4664V32.1623C5.12524 32.3262 5.26062 32.4639 5.42687 32.4639Z" fill="white"/>
<path d="M28.3147 28.4811C28.4216 28.6687 28.6686 28.7304 28.8586 28.6236L29.8489 28.0488V29.1912C29.8489 29.4097 30.0271 29.5854 30.2384 29.5854C30.4569 29.5854 30.6351 29.4097 30.6351 29.1912V28.0488L31.6231 28.6236C31.8154 28.7328 32.0577 28.6711 32.1669 28.4811C32.2762 28.2911 32.2168 28.0464 32.0221 27.9372L31.0269 27.3601L32.0221 26.7782C32.2144 26.6666 32.2738 26.4243 32.1669 26.2367C32.0553 26.0443 31.8154 25.9849 31.6231 26.0894L30.6351 26.6642V25.5218C30.6351 25.3033 30.4569 25.1276 30.2384 25.1276C30.0271 25.1276 29.8489 25.3033 29.8489 25.5218V26.6642L28.8586 26.0894C28.6686 25.9826 28.4192 26.0419 28.3147 26.2367C28.2102 26.4219 28.2696 26.6666 28.4596 26.7782L29.4547 27.3601L28.4596 27.9372C28.2696 28.0488 28.1983 28.2911 28.3147 28.4811Z" fill="white"/>
</svg>
