<svg width="31" height="31" viewBox="0 0 31 31" fill="none" xmlns="http://www.w3.org/2000/svg">
<path d="M12.2791 12.8969C9.34906 12.8969 6.96606 10.5139 6.96606 7.58094C6.96606 4.65094 9.34906 2.26794 12.2791 2.26794C15.2101 2.26794 17.5961 4.65194 17.5961 7.58094C17.5971 10.5149 15.2101 12.8969 12.2791 12.8969ZM12.2791 3.32794C9.93706 3.32794 8.02906 5.23594 8.02906 7.58094C8.02906 9.92694 9.93606 11.8339 12.2791 11.8339C14.6261 11.8339 16.5321 9.92694 16.5321 7.58094C16.5321 5.23594 14.6261 3.32794 12.2791 3.32794Z" fill="white"/>
<path d="M11.7481 24.5889H3.24609C2.95309 24.5889 2.71509 24.3519 2.71509 24.0579V19.8059C2.71509 17.1689 4.86109 15.0249 7.49909 15.0249H13.8751C14.1691 15.0249 14.4071 15.2619 14.4071 15.5519C14.4071 15.8509 14.1701 16.0879 13.8751 16.0879H7.49809C5.44609 16.0879 3.77709 17.7559 3.77709 19.8059V23.5259H11.7481C12.0421 23.5259 12.2791 23.7639 12.2791 24.0579C12.2791 24.3519 12.0421 24.5889 11.7481 24.5889Z" fill="white"/>
<path d="M20.7832 23.525C19.3192 23.525 18.1292 22.335 18.1292 20.869C18.1292 19.401 19.3192 18.213 20.7832 18.213C22.2502 18.213 23.4391 19.401 23.4391 20.869C23.4391 22.335 22.2502 23.525 20.7832 23.525ZM20.7832 19.276C19.9052 19.276 19.1922 19.99 19.1922 20.869C19.1922 21.748 19.9052 22.464 20.7832 22.464C21.6632 22.464 22.3772 21.748 22.3772 20.869C22.3772 19.99 21.6632 19.276 20.7832 19.276Z" fill="white"/>
<path d="M21.6301 27.779H19.9351C19.3871 27.779 18.9331 27.367 18.8781 26.821L18.7441 25.468C18.4221 25.326 18.1151 25.147 17.8251 24.934L16.5811 25.494C16.0841 25.723 15.4991 25.532 15.2241 25.057L14.3801 23.59C14.1031 23.114 14.2351 22.515 14.6791 22.196L15.7731 21.407C15.7511 21.243 15.7351 21.062 15.7351 20.869C15.7351 20.678 15.7511 20.493 15.7731 20.331L14.6791 19.542C14.2351 19.226 14.1031 18.626 14.3801 18.149L15.2241 16.68C15.5011 16.204 16.0801 16.017 16.5811 16.244L17.8251 16.801C18.1151 16.588 18.4221 16.412 18.7441 16.271L18.8781 14.917C18.9331 14.372 19.3871 13.959 19.9351 13.959H21.6301C22.1821 13.959 22.6371 14.372 22.6901 14.917L22.8231 16.271C23.1481 16.412 23.4561 16.591 23.7461 16.804L24.9851 16.244C25.4871 16.015 26.0681 16.209 26.3411 16.682L27.1911 18.149C27.4631 18.624 27.3341 19.223 26.8921 19.54L25.7951 20.331C25.8191 20.494 25.8301 20.676 25.8301 20.869C25.8301 21.06 25.8191 21.245 25.7951 21.405L26.8921 22.194C27.3331 22.512 27.4631 23.113 27.1911 23.588L26.3451 25.056C26.0681 25.529 25.4881 25.721 24.9851 25.493L23.7461 24.933C23.4561 25.146 23.1481 25.326 22.8241 25.467L22.6901 26.82C22.6371 27.367 22.1821 27.779 21.6301 27.779ZM17.9001 23.787C18.0211 23.787 18.1411 23.829 18.2381 23.912C18.5981 24.214 18.9991 24.444 19.4231 24.599C19.6141 24.669 19.7481 24.844 19.7681 25.046L19.9391 26.716H21.6321L21.7981 25.046C21.8201 24.844 21.9531 24.669 22.1471 24.599C22.5691 24.445 22.9691 24.212 23.3311 23.912C23.4861 23.78 23.7021 23.75 23.8881 23.834L25.4261 24.527L26.2711 23.059L24.9151 22.083C24.7491 21.965 24.6651 21.76 24.6961 21.561C24.7401 21.336 24.7691 21.108 24.7691 20.871C24.7691 20.634 24.7401 20.405 24.6961 20.183C24.6611 19.981 24.7491 19.779 24.9151 19.656L26.2711 18.68L25.4261 17.212L23.8881 17.906C23.7021 17.99 23.4841 17.959 23.3271 17.827C22.9701 17.528 22.5691 17.298 22.1471 17.141C21.9531 17.071 21.8211 16.895 21.7971 16.693L21.6301 15.023H19.9351L19.7681 16.693C19.7481 16.895 19.6151 17.069 19.4231 17.139C18.9991 17.29 18.5991 17.526 18.2381 17.827C18.0851 17.959 17.8661 17.985 17.6801 17.904L16.1451 17.212L15.2981 18.68L16.6551 19.656C16.8221 19.772 16.9051 19.979 16.8711 20.177C16.8311 20.404 16.8011 20.632 16.8011 20.869C16.8011 21.102 16.8311 21.333 16.8711 21.557C16.9061 21.757 16.8221 21.961 16.6551 22.08L15.2981 23.056L16.1451 24.524L17.6801 23.834C17.7511 23.803 17.8251 23.787 17.9001 23.787Z" fill="white"/>
</svg>
