<svg width="20" height="20" viewBox="0 0 20 20" fill="none" xmlns="http://www.w3.org/2000/svg">
    <path
        d="M8.59375 0H0.78125C0.349766 0 0 0.349766 0 0.78125V8.59375C0 9.02523 0.349766 9.375 0.78125 9.375H8.59375C9.02523 9.375 9.375 9.02523 9.375 8.59375V0.78125C9.375 0.349766 9.02523 0 8.59375 0ZM7.8125 7.8125H1.5625V1.5625H7.8125V7.8125Z"
        fill="#8098A3" />
    <path
        d="M6.42413 2.16992H2.9519C2.52042 2.16992 2.17065 2.51969 2.17065 2.95117V6.42336C2.17065 6.85484 2.52042 7.20461 2.9519 7.20461H6.42409C6.85558 7.20461 7.20534 6.85484 7.20538 6.4234V2.95117C7.20538 2.51969 6.85562 2.16992 6.42413 2.16992ZM5.64288 5.64211H3.73315V3.73242H5.64288V5.64211Z"
        fill="#8098A3" />
    <path
        d="M19.2188 0H11.4062C10.9748 0 10.625 0.349766 10.625 0.78125V8.59375C10.625 9.02523 10.9748 9.375 11.4062 9.375H19.2188C19.6502 9.375 20 9.02523 20 8.59375V0.78125C20 0.349766 19.6502 0 19.2188 0ZM18.4375 7.8125H12.1875V1.5625H18.4375V7.8125Z"
        fill="#8098A3" />
    <path
        d="M17.0491 2.16992H13.5769C13.1454 2.16992 12.7957 2.51969 12.7957 2.95117V6.42336C12.7957 6.85484 13.1454 7.20461 13.5769 7.20461H17.0491C17.4806 7.20461 17.8304 6.85484 17.8304 6.4234V2.95117C17.8304 2.51969 17.4806 2.16992 17.0491 2.16992ZM16.2679 5.64211H14.3582V3.73242H16.2679V5.64211Z"
        fill="#8098A3" />
    <path
        d="M8.59375 10.625H0.78125C0.349766 10.625 0 10.9748 0 11.4062V19.2188C0 19.6502 0.349766 20 0.78125 20H8.59375C9.02523 20 9.375 19.6502 9.375 19.2188V11.4062C9.375 10.9748 9.02523 10.625 8.59375 10.625ZM7.8125 18.4375H1.5625V12.1875H7.8125V18.4375Z"
        fill="#8098A3" />
    <path
        d="M6.42413 12.7949H2.9519C2.52042 12.7949 2.17065 13.1447 2.17065 13.5762V17.0484C2.17065 17.4799 2.52042 17.8296 2.9519 17.8296H6.42409C6.85558 17.8296 7.20534 17.4799 7.20538 17.0484V13.5762C7.20538 13.1447 6.85562 12.7949 6.42413 12.7949ZM5.64288 16.2671H3.73315V14.3574H5.64288V16.2671Z"
        fill="#8098A3" />
    <path
        d="M13.9091 10.625H11.4063C10.9748 10.625 10.625 10.9748 10.625 11.4063V13.9091C10.625 14.3406 10.9748 14.6904 11.4063 14.6904C11.8377 14.6904 12.1875 14.3406 12.1875 13.9091V12.1875H13.9091C14.3406 12.1875 14.6904 11.8377 14.6904 11.4063C14.6904 10.9748 14.3406 10.625 13.9091 10.625Z"
        fill="#8098A3" />
    <path
        d="M19.2197 10.625H16.7168C16.2853 10.625 15.9355 10.9748 15.9355 11.4063C15.9355 11.8377 16.2853 12.1875 16.7168 12.1875H18.4384V13.9091C18.4384 14.3406 18.7882 14.6904 19.2197 14.6904C19.6512 14.6904 20.0009 14.3406 20.0009 13.9091V11.4063C20.0009 10.9748 19.6512 10.625 19.2197 10.625Z"
        fill="#8098A3" />
    <path
        d="M13.9091 18.4375H12.1875V16.7158C12.1875 16.2843 11.8377 15.9346 11.4063 15.9346C10.9748 15.9346 10.625 16.2843 10.625 16.7158V19.2187C10.625 19.6502 10.9748 20 11.4063 20H13.9091C14.3406 20 14.6904 19.6502 14.6904 19.2187C14.6904 18.7872 14.3406 18.4375 13.9091 18.4375Z"
        fill="#8098A3" />
    <path
        d="M19.2197 15.9346C18.7882 15.9346 18.4384 16.2843 18.4384 16.7158V18.4375H16.7168C16.2853 18.4375 15.9355 18.7872 15.9355 19.2187C15.9355 19.6502 16.2853 20 16.7168 20H19.2197C19.6512 20 20.0009 19.6502 20.0009 19.2187V16.7158C20.0009 16.2843 19.6512 15.9346 19.2197 15.9346Z"
        fill="#8098A3" />
</svg>
