<svg width="21" height="17" viewBox="0 0 21 17" fill="none" xmlns="http://www.w3.org/2000/svg">
    <path fill-rule="evenodd" clip-rule="evenodd"
        d="M2.625 2.375C2.14175 2.375 1.75 2.76675 1.75 3.25V13.75C1.75 14.2332 2.14175 14.625 2.625 14.625H18.375C18.8582 14.625 19.25 14.2332 19.25 13.75V3.25C19.25 2.76675 18.8582 2.375 18.375 2.375H2.625ZM0 3.25C0 1.80025 1.17525 0.625 2.625 0.625H18.375C19.8247 0.625 21 1.80025 21 3.25V13.75C21 15.1997 19.8247 16.375 18.375 16.375H2.625C1.17525 16.375 0 15.1997 0 13.75V3.25Z"
        fill="white" />
    <path fill-rule="evenodd" clip-rule="evenodd"
        d="M0 6.75C0 6.26675 0.391751 5.875 0.875 5.875H20.125C20.6082 5.875 21 6.26675 21 6.75C21 7.23325 20.6082 7.625 20.125 7.625H0.875C0.391751 7.625 0 7.23325 0 6.75Z"
        fill="white" />
</svg>
