<svg width="20" height="16" viewBox="0 0 20 16" fill="none" xmlns="http://www.w3.org/2000/svg">
    <path fill-rule="evenodd" clip-rule="evenodd"
        d="M0.833252 8C0.833252 7.53976 1.20635 7.16667 1.66659 7.16667H18.3333C18.7935 7.16667 19.1666 7.53976 19.1666 8C19.1666 8.46024 18.7935 8.83333 18.3333 8.83333H1.66659C1.20635 8.83333 0.833252 8.46024 0.833252 8Z"
        fill="white" />
    <path fill-rule="evenodd" clip-rule="evenodd"
        d="M6.03325 0.5L13.9666 0.5C14.4317 0.500247 14.8879 0.630236 15.2832 0.87535C15.6782 1.12025 15.997 1.47037 16.204 1.8864C16.2042 1.88677 16.2043 1.88713 16.2045 1.8875L19.0784 7.62689C19.1364 7.74272 19.1666 7.87047 19.1666 8V13C19.1666 13.663 18.9032 14.2989 18.4344 14.7678C17.9655 15.2366 17.3296 15.5 16.6666 15.5H3.33325C2.67021 15.5 2.03433 15.2366 1.56548 14.7678C1.09664 14.2989 0.833252 13.663 0.833252 13V8C0.833252 7.87047 0.863449 7.74272 0.921446 7.62689L3.79531 1.8875C3.79551 1.88709 3.79571 1.88669 3.79592 1.88628C4.0029 1.4703 4.32173 1.12022 4.71662 0.87535C5.11189 0.630236 5.56815 0.500247 6.03325 0.5ZM4.54159 2.25833L5.28673 2.63144L2.49992 8.19698V13C2.49992 13.221 2.58772 13.433 2.744 13.5893C2.90028 13.7455 3.11224 13.8333 3.33325 13.8333H16.6666C16.8876 13.8333 17.0996 13.7455 17.2558 13.5893C17.4121 13.433 17.4999 13.221 17.4999 13V8.19698L14.7131 2.63144L14.712 2.62917C14.643 2.49033 14.5366 2.37349 14.4049 2.29178C14.2732 2.21011 14.1213 2.16678 13.9663 2.16667H6.03354C5.87856 2.16678 5.72668 2.21011 5.59496 2.29178C5.4632 2.37349 5.35685 2.49033 5.28786 2.62917L4.54159 2.25833Z"
        fill="white" />
</svg>
