<svg width="31" height="31" viewBox="0 0 31 31" fill="none" xmlns="http://www.w3.org/2000/svg">
<path d="M25.0291 12.676H15.4231C13.9111 12.676 12.6721 13.907 12.6721 15.423V20.642L10.1861 22.419C9.98812 22.56 9.87012 22.786 9.87012 23.03C9.87012 23.268 9.98812 23.497 10.1861 23.637L12.7051 25.436C12.9001 26.758 14.0431 27.778 15.4231 27.778H25.0291C26.5431 27.778 27.7811 26.546 27.7811 25.028V15.422C27.7811 13.907 26.5431 12.676 25.0291 12.676ZM21.8011 23.18C21.6191 23.18 21.4881 23.121 21.4441 22.971L21.1451 21.907H19.3091L19.0101 22.971C18.9651 23.121 18.8341 23.18 18.6561 23.18C18.3771 23.18 17.9981 23.002 17.9981 22.744C17.9981 22.73 18.0081 22.697 18.0161 22.664L19.5551 17.629C19.6331 17.389 19.9241 17.277 20.2231 17.277C20.5301 17.277 20.8211 17.388 20.8991 17.629L22.4381 22.664C22.4461 22.697 22.4561 22.723 22.4561 22.744C22.4551 22.994 22.0761 23.18 21.8011 23.18Z" fill="white"/>
<path d="M19.5271 21.0899H20.9161L20.2231 18.6289L19.5271 21.0899Z" fill="white"/>
<path d="M11.1801 15.423C11.1801 14.421 11.5321 13.498 12.1171 12.769C11.2641 12.769 10.4731 12.505 9.81811 12.052C9.16811 12.505 8.37711 12.769 7.52411 12.769C7.29111 12.769 7.10211 12.58 7.10211 12.347C7.10211 12.117 7.29111 11.929 7.52411 11.929C8.12211 11.929 8.68011 11.762 9.15911 11.476C8.57911 10.852 8.19711 10.048 8.10411 9.15597H7.52411C7.29111 9.15597 7.10211 8.96697 7.10211 8.73397C7.10211 8.50097 7.29111 8.31397 7.52411 8.31397H9.39711V7.29297C9.39711 7.05997 9.58511 6.87097 9.81811 6.87097C10.0511 6.87097 10.2401 7.05997 10.2401 7.29297V8.31397H12.1171C12.3481 8.31397 12.5391 8.50097 12.5391 8.73397C12.5391 8.96697 12.3491 9.15597 12.1171 9.15597H11.5361C11.4421 10.048 11.0571 10.852 10.4811 11.476C10.9601 11.762 11.5181 11.929 12.1161 11.929C12.3361 11.929 12.5201 12.1 12.5321 12.32C13.2951 11.613 14.3061 11.182 15.4231 11.182H17.3751V9.40197L19.8611 7.62697C20.0541 7.48597 20.1701 7.25797 20.1701 7.01597C20.1701 6.77697 20.0551 6.54997 19.8611 6.40997L17.3401 4.61197C17.1471 3.28497 16.0031 2.26697 14.6241 2.26697H5.01411C3.49811 2.26697 2.26611 3.49997 2.26611 5.01597V14.622C2.26611 16.139 3.49811 17.37 5.01411 17.37H11.1801V15.423Z" fill="white"/>
<path d="M9.81715 10.949C10.2791 10.47 10.5911 9.85001 10.6831 9.15601H8.95215C9.04415 9.85101 9.35615 10.47 9.81715 10.949Z" fill="white"/>
</svg>
