<svg width="72" height="102" viewBox="0 0 72 102" fill="none" xmlns="http://www.w3.org/2000/svg">
<path d="M58.0599 4.4263C51.6132 1.49092 44.1919 0 36.0042 0C27.7572 0 20.3362 1.49092 13.9402 4.43067C12.8814 4.91772 12.4153 6.17574 12.9024 7.23898C13.3894 8.30223 14.6475 8.76386 15.7107 8.27681C21.5475 5.59557 28.3757 4.23589 36.0042 4.23589C43.582 4.23589 50.4101 5.59557 56.3063 8.28098C56.59 8.40805 56.8909 8.47159 57.1831 8.47159C57.9878 8.47159 58.7588 8.01413 59.1105 7.23045C59.5933 6.1672 59.1232 4.90918 58.0599 4.4263Z" fill="#32AD78"/>
<path d="M67.1669 21.8099C58.5809 13.0842 47.801 8.47144 35.9959 8.47144C24.2375 8.47144 13.4659 13.0842 4.85034 21.8055C4.02853 22.6401 4.03707 23.9827 4.86721 24.8003C5.28238 25.2111 5.82026 25.4144 6.35397 25.4144C6.90038 25.4144 7.44679 25.2026 7.86196 24.7876C15.6684 16.8839 25.3937 12.7073 35.9959 12.7073C46.6361 12.7073 56.3742 16.8795 64.1467 24.7793C64.9641 25.6094 66.3069 25.6221 67.1415 24.8047C67.9758 23.9872 67.9885 22.6403 67.1669 21.8099Z" fill="#32AD78"/>
<path d="M35.996 16.943C32.9717 16.943 29.9727 17.3157 27.0755 18.0571C25.9404 18.3452 25.2583 19.4972 25.5464 20.6281C25.8345 21.7676 26.9824 22.4494 28.126 22.1572C30.676 21.5091 33.3275 21.1787 35.996 21.1787C53.5152 21.1787 67.7642 35.4277 67.7642 52.9469C67.7642 54.116 68.7131 55.0648 69.8822 55.0648C71.0512 55.0648 72.0001 54.116 72.0001 52.9469C71.9999 33.094 55.8489 16.943 35.996 16.943Z" fill="#32AD78"/>
<path d="M20.8149 22.5639C20.2218 21.5515 18.9215 21.217 17.9176 21.8057C15.2068 23.3941 12.6949 25.3468 10.4626 27.6087C3.86754 34.2759 0.152842 43.2599 0.000354565 52.9131C-0.0208904 54.0863 0.915278 55.0438 2.08435 55.0648C2.09706 55.0648 2.10976 55.0648 2.1183 55.0648C3.27467 55.0648 4.21917 54.1372 4.23625 52.9808C4.37186 44.4288 7.65034 36.474 13.4744 30.5906C15.4526 28.587 17.6679 26.8632 20.0568 25.4654C21.0649 24.8723 21.4036 23.572 20.8149 22.5639Z" fill="#32AD78"/>
<path d="M56.7509 34.8688C51.5113 28.8582 43.9461 25.4146 35.9957 25.4146C28.6086 25.4146 21.6788 28.3118 16.4859 33.5685C11.314 38.7997 8.46757 45.8649 8.46757 53.5824C8.48028 58.1358 7.05707 63.5999 4.50707 68.8524L3.31675 70.9704C2.74493 71.9911 3.1049 73.2831 4.12585 73.8549C4.45624 74.037 4.81205 74.1259 5.16368 74.1259C5.90487 74.1259 6.62085 73.7362 7.01041 73.0458L8.25989 70.8179C11.1826 64.7946 12.7201 58.8307 12.7033 53.4683C12.7033 46.9875 15.1177 40.977 19.4975 36.5463C23.8942 32.0988 29.7523 29.6504 35.9957 29.6504C42.7179 29.6504 49.1224 32.5646 53.5572 37.656C54.3323 38.537 55.6666 38.6218 56.5476 37.8594C57.4286 37.0884 57.5175 35.7541 56.7509 34.8688Z" fill="#32AD78"/>
<path d="M67.4633 77.3661L65.0785 69.547C63.7357 63.4221 63.6214 57.5682 63.5495 54.0737L63.5241 52.9469C63.5241 49.8082 62.9945 46.7203 61.9525 43.7808C61.5671 42.6794 60.3556 42.1034 59.25 42.4888C58.1487 42.8827 57.5727 44.0899 57.9624 45.1954C58.8434 47.6819 59.2882 50.2911 59.2882 53.0019L59.3136 54.1541C59.3857 57.8096 59.5084 63.9218 60.9824 70.6185L63.4053 78.5987C63.6849 79.5095 64.5277 80.0982 65.4343 80.0982C65.6376 80.0982 65.8451 80.0686 66.0528 80.0092C67.1711 79.6705 67.8022 78.4887 67.4633 77.3661Z" fill="#32AD78"/>
<path d="M61.2833 87.1423L59.3178 80.8395C55.8275 69.9367 55.1753 57.6614 55.0567 52.947C55.0567 42.4381 46.5047 33.8861 35.9958 33.8861C25.4869 33.8861 16.939 42.5694 16.939 53.3155C16.9432 55.5435 16.5324 67.319 7.59063 80.2169C6.92131 81.1785 7.16275 82.5 8.12434 83.165C9.07738 83.8216 10.4031 83.5885 11.0724 82.6313C20.4971 69.0386 21.1874 56.7423 21.1747 53.2435C21.1747 44.9075 27.8206 38.1218 35.9914 38.1218C44.1664 38.1218 50.8166 44.7763 50.8166 53.002C50.9691 59.1524 51.7528 71.1141 55.2769 82.1144L57.2338 88.4004C57.5176 89.3111 58.3562 89.8913 59.2585 89.8913C59.4703 89.8913 59.6778 89.8617 59.8897 89.7938C61.0079 89.4465 61.6305 88.2606 61.2833 87.1423Z" fill="#32AD78"/>
<path d="M46.5851 52.9386C46.5851 47.0974 41.8367 42.3492 35.9957 42.3492C30.1546 42.3492 25.4064 47.1018 25.4064 53.0192C25.4318 53.7223 25.8978 70.3605 12.4491 87.8667C11.7375 88.7944 11.9113 90.1245 12.8389 90.8361C13.7707 91.5477 15.0966 91.374 15.8082 90.4463C30.1802 71.7412 29.6633 53.6248 29.6379 52.9429C29.6379 49.4399 32.4885 46.5893 35.9916 46.5893C39.4946 46.5893 42.3494 49.4399 42.3494 52.9938C42.4044 55.3659 42.4215 76.7649 25.8849 98.2486C25.1733 99.1762 25.3427 100.502 26.2703 101.218C26.6601 101.514 27.1132 101.659 27.5623 101.659C28.1976 101.659 28.8288 101.375 29.2438 100.824C46.6953 78.154 46.6486 55.4038 46.5851 52.9386Z" fill="#32AD78"/>
<path d="M38.1096 52.8538C38.0587 51.6806 37.1057 50.8715 35.9027 50.8334C34.7336 50.8842 33.8272 51.8754 33.878 53.0403C33.878 53.0699 33.9966 56.1663 33.2087 61.0754C33.0223 62.2276 33.8101 63.3161 34.9623 63.5025C35.0767 63.5194 35.1911 63.528 35.3012 63.528C36.3264 63.528 37.2242 62.7868 37.3938 61.7489C38.2577 56.3696 38.1137 52.9936 38.1096 52.8538Z" fill="#32AD78"/>
<path d="M33.95 67.9204C32.8317 67.6027 31.6499 68.2296 31.3154 69.3522C28.6637 78.2981 24.2628 86.6637 18.231 94.2076C17.5026 95.1226 17.6507 96.4527 18.5656 97.1853C18.9554 97.4944 19.4255 97.6469 19.8872 97.6469C20.5098 97.6469 21.1239 97.3716 21.5391 96.8549C27.914 88.8747 32.569 80.0263 35.3773 70.5508C35.7119 69.4284 35.0724 68.2508 33.95 67.9204Z" fill="#32AD78"/>
<path d="M54.4722 93.3055L51.9222 85.1855C50.9057 82.1485 49.9568 78.9293 49.9526 78.9208C49.6985 78.0609 48.936 77.4553 48.0423 77.4045C47.1062 77.3028 46.3183 77.8705 45.9711 78.6921C45.9244 78.8023 41.2058 89.8914 35.7967 98.4052C35.1699 99.3922 35.4621 100.705 36.4489 101.328C36.8006 101.552 37.1945 101.658 37.584 101.658C38.2829 101.658 38.9691 101.311 39.3672 100.684C42.6457 95.5249 45.6151 89.6033 47.5549 85.4776C47.6693 85.8165 47.7795 86.1596 47.8938 86.4941L50.4311 94.5718C50.7784 95.6859 51.9645 96.3169 53.0869 95.9611C54.201 95.6096 54.8237 94.4193 54.4722 93.3055Z" fill="#32AD78"/>
</svg>
