<svg width="22" height="24" viewBox="0 0 22 24" fill="none" xmlns="http://www.w3.org/2000/svg">
<path d="M1 20H6.25" stroke="#7493FF" stroke-width="1.6" stroke-linecap="round"/>
<path d="M4.56569 16.4343C4.25327 16.1219 3.74673 16.1219 3.43431 16.4343C3.1219 16.7467 3.1219 17.2533 3.43431 17.5657L4.56569 16.4343ZM7 20L7.56569 20.5657C7.8781 20.2533 7.8781 19.7467 7.56569 19.4343L7 20ZM3.43431 22.4343C3.1219 22.7467 3.1219 23.2533 3.43431 23.5657C3.74673 23.8781 4.25327 23.8781 4.56569 23.5657L3.43431 22.4343ZM3.43431 17.5657L6.43431 20.5657L7.56569 19.4343L4.56569 16.4343L3.43431 17.5657ZM6.43431 19.4343L3.43431 22.4343L4.56569 23.5657L7.56569 20.5657L6.43431 19.4343Z" fill="#7493FF"/>
<path d="M1 12.5V4.0365C1 2.35949 2.27919 1 3.85714 1H18.1429C19.7208 1 21 2.35949 21 4.0365V13.9635C21 15.6405 19.7208 17 18.1429 17H12" stroke="#7493FF" stroke-width="1.6" stroke-linecap="round"/>
<path d="M1 7H21" stroke="#7493FF" stroke-width="1.6" stroke-linecap="round"/>
<path d="M15 12H21" stroke="#7493FF" stroke-width="1.6" stroke-linecap="round"/>
<path d="M6 12L11 12" stroke="#7493FF" stroke-width="1.6" stroke-linecap="round"/>
</svg>
