<svg width="31" height="31" viewBox="0 0 31 31" fill="none" xmlns="http://www.w3.org/2000/svg">
<path d="M24.1421 19.8569C24.6871 19.8569 25.1351 19.4099 25.1351 18.8589V8.74694C25.1351 6.54594 23.3511 4.75694 21.1541 4.75694H18.0081V3.26294C18.0081 2.71394 17.5701 2.26794 17.0161 2.26794H13.0271C12.4791 2.26794 12.0351 2.71394 12.0351 3.26294V4.75694H8.90011C6.69811 4.75694 4.91211 6.54594 4.91211 8.74694V23.7939C4.91211 25.9919 6.69911 27.7789 8.90011 27.7789H21.1531C23.3501 27.7789 25.1341 25.9919 25.1341 23.7939C25.1341 23.2429 24.6861 22.7969 24.1411 22.7969C23.5871 22.7969 23.1391 23.2429 23.1391 23.7939C23.1391 24.8929 22.2511 25.7859 21.1531 25.7859H8.90011C7.80111 25.7859 6.90511 24.8919 6.90511 23.7939V8.74694C6.90511 7.64394 7.80111 6.75194 8.90011 6.75194H12.0331V7.24894C12.0331 8.89894 13.3761 10.2409 15.0191 10.2409C16.6711 10.2409 18.0061 8.89894 18.0061 7.24894V6.75194H21.1521C22.2511 6.75194 23.1381 7.64494 23.1381 8.74694V18.8589C23.1401 19.4099 23.5881 19.8569 24.1421 19.8569ZM16.0211 7.24894C16.0211 7.79794 15.5731 8.24594 15.0191 8.24594C14.4741 8.24594 14.0261 7.79794 14.0261 7.24894V4.26094H16.0211V7.24894ZM20.3711 13.6079C20.8281 13.9229 20.9341 14.5429 20.6261 14.9959L16.1881 21.3859C16.1791 21.4049 16.1621 21.4219 16.1441 21.4399C15.6961 21.9989 15.0371 22.3459 14.3251 22.3929C14.2631 22.3969 14.2111 22.3989 14.1491 22.3989C13.4991 22.3989 12.8581 22.1469 12.3841 21.6929C12.3801 21.6869 12.3751 21.6839 12.3711 21.6779L9.73411 19.0739C9.34311 18.6869 9.34311 18.0549 9.73011 17.6639C10.1171 17.2729 10.7451 17.2679 11.1361 17.6559L13.7611 20.2539C13.9191 20.3989 14.0951 20.4099 14.1831 20.4029C14.2801 20.3959 14.4421 20.3649 14.5791 20.2129L18.9811 13.8589C19.2991 13.4089 19.9231 13.2959 20.3711 13.6079Z" fill="white"/>
</svg>
