<svg width="20" height="20" viewBox="0 0 20 20" fill="none" xmlns="http://www.w3.org/2000/svg">
    <path fill-rule="evenodd" clip-rule="evenodd"
        d="M1.22039 12.8874C2.00179 12.106 3.0616 11.667 4.16667 11.667H10.8333C11.9384 11.667 12.9982 12.106 13.7796 12.8874C14.561 13.6688 15 14.7286 15 15.8337V17.5003C15 17.9606 14.6269 18.3337 14.1667 18.3337C13.7064 18.3337 13.3333 17.9606 13.3333 17.5003V15.8337C13.3333 15.1706 13.0699 14.5347 12.6011 14.0659C12.1323 13.5971 11.4964 13.3337 10.8333 13.3337H4.16667C3.50363 13.3337 2.86774 13.5971 2.3989 14.0659C1.93006 14.5347 1.66667 15.1706 1.66667 15.8337V17.5003C1.66667 17.9606 1.29357 18.3337 0.833333 18.3337C0.373096 18.3337 0 17.9606 0 17.5003V15.8337C0 14.7286 0.438987 13.6688 1.22039 12.8874Z"
        fill="#8098A3" />
    <path fill-rule="evenodd" clip-rule="evenodd"
        d="M7.49992 3.33366C6.11921 3.33366 4.99992 4.45295 4.99992 5.83366C4.99992 7.21437 6.11921 8.33366 7.49992 8.33366C8.88063 8.33366 9.99992 7.21437 9.99992 5.83366C9.99992 4.45295 8.88063 3.33366 7.49992 3.33366ZM3.33325 5.83366C3.33325 3.53247 5.19873 1.66699 7.49992 1.66699C9.80111 1.66699 11.6666 3.53247 11.6666 5.83366C11.6666 8.13485 9.80111 10.0003 7.49992 10.0003C5.19873 10.0003 3.33325 8.13485 3.33325 5.83366Z"
        fill="#8098A3" />
    <path fill-rule="evenodd" clip-rule="evenodd"
        d="M15.8599 12.4006C15.975 11.955 16.4295 11.687 16.8751 11.8021C17.769 12.0329 18.5609 12.554 19.1265 13.2836C19.6922 14.0133 19.9994 14.9101 20.0001 15.8333L20.0001 17.5006C20.0001 17.9608 19.627 18.3339 19.1668 18.3339C18.7066 18.3339 18.3335 17.9608 18.3335 17.5006L18.3335 15.8345C18.3335 15.8345 18.3335 15.8346 18.3335 15.8345C18.333 15.2807 18.1486 14.7425 17.8093 14.3047C17.4699 13.867 16.9948 13.5543 16.4585 13.4158C16.0128 13.3007 15.7449 12.8462 15.8599 12.4006Z"
        fill="#8098A3" />
    <path fill-rule="evenodd" clip-rule="evenodd"
        d="M12.526 2.40223C12.6402 1.95637 13.0941 1.68748 13.54 1.80163C14.4363 2.03111 15.2307 2.55236 15.7979 3.28321C16.3652 4.01405 16.6732 4.91291 16.6732 5.83809C16.6732 6.76327 16.3652 7.66213 15.7979 8.39298C15.2307 9.12382 14.4363 9.64507 13.54 9.87455C13.0941 9.98871 12.6402 9.71981 12.526 9.27396C12.4118 8.8281 12.6807 8.37412 13.1266 8.25997C13.6643 8.12228 14.141 7.80953 14.4814 7.37102C14.8217 6.93252 15.0065 6.3932 15.0065 5.83809C15.0065 5.28299 14.8217 4.74367 14.4814 4.30516C14.141 3.86665 13.6643 3.5539 13.1266 3.41622C12.6807 3.30206 12.4118 2.84808 12.526 2.40223Z"
        fill="#8098A3" />
</svg>
