<svg width="40" height="40" viewBox="0 0 40 40" fill="none" xmlns="http://www.w3.org/2000/svg">
<g clip-path="url(#clip0)">
<path d="M39.9116 21.8706H0.090332V21.8712H39.9116V21.8706Z" fill="#C42126"/>
<path d="M37.8356 10.9526H2.16406V10.9532H37.8356V10.9526Z" fill="#C42126"/>
<path d="M39.2529 14.5913H0.745605V14.5919H39.2529V14.5913Z" fill="#C42126"/>
<path d="M8.59599 36.4266H31.4044L31.4055 36.4253H8.59473L8.59599 36.4266Z" fill="#C42126"/>
<path d="M20 0C19.6071 0 19.2174 0.0141869 18.8306 0.0363117H21.1696C20.7824 0.0141869 20.3928 0 20 0Z" fill="#C42126"/>
<path d="M39.9164 18.231H0.0825195V18.2315H39.9164V18.231Z" fill="#C42126"/>
<path d="M25.9109 7.31404H35.4611C34.3267 5.9331 33.0083 4.71066 31.5478 3.67578H24.3765C24.9699 4.71978 25.4802 5.95168 25.9109 7.31404Z" fill="#E7E7E7"/>
<path d="M24.3767 3.67532H31.548C28.5833 1.5744 25.024 0.258732 21.1695 0.0361328H20.5537C22.3679 0.264474 23.2013 1.60716 24.3767 3.67532Z" fill="#DC3027"/>
<path d="M39.2542 14.5919C38.8986 13.3237 38.4218 12.1069 37.8357 10.9536H26.8486C27.0712 12.1218 27.2469 13.3419 27.3769 14.5919H39.2542Z" fill="#E7E7E7"/>
<path d="M26.2308 10.9528H37.8355C37.1742 9.6521 36.3798 8.43152 35.4614 7.31396H25.3242C25.6817 8.44545 25.9852 9.66603 26.2308 10.9528Z" fill="#DC3027"/>
<path d="M27.7979 21.8695H39.91C39.9675 21.254 40 20.6303 40 20C40 19.4035 39.9688 18.8146 39.9176 18.231H27.8007C27.8402 19.4411 27.8395 20.66 27.7979 21.8695Z" fill="#E7E7E7"/>
<path d="M39.9177 18.2305C39.8081 16.9809 39.583 15.7652 39.2542 14.5923H26.8667C26.9911 15.7837 27.0733 17.0027 27.1134 18.2305H39.9177Z" fill="#DC3027"/>
<path d="M26.6396 29.1476H37.7833C38.3776 27.9956 38.862 26.7779 39.2252 25.5088H27.1784C27.0457 26.7606 26.8657 27.9805 26.6396 29.1476Z" fill="#E7E7E7"/>
<path d="M39.2255 25.5089C39.5611 24.3363 39.7942 23.1206 39.9101 21.8706H27.4202C27.3776 23.0994 27.2929 24.318 27.166 25.5089H39.2255Z" fill="#DC3027"/>
<path d="M31.4053 36.4254C32.887 35.3946 34.2241 34.1709 35.3764 32.7871H25.9927C25.5541 34.1551 25.0333 35.3851 24.4292 36.4254H31.4053Z" fill="#E7E7E7"/>
<path d="M25.6396 32.7868H35.3764C36.3055 31.6705 37.112 30.4499 37.783 29.1479H26.5577C26.3085 30.4357 26.0019 31.6568 25.6396 32.7868Z" fill="#DC3027"/>
<path d="M19.2751 39.9858C19.2346 39.9846 19.1943 39.9827 19.1538 39.9814C19.1943 39.9826 19.2347 39.9846 19.2751 39.9858Z" fill="#DC3027"/>
<path d="M20 40.0003C24.2401 40.0003 28.1689 38.6767 31.4045 36.4268H24.1662C22.8815 38.6401 22.034 40.0003 20 40.0003Z" fill="#DC3027"/>
<path d="M20.0001 40C19.7572 40 19.516 39.9944 19.2754 39.9858C19.5185 39.994 19.76 40 20.0001 40Z" fill="#C42126"/>
<path d="M25.0388 3.67578H8.45221C6.99138 4.71066 5.67327 5.93302 4.53857 7.31404H26.5729C26.1422 5.95168 25.6322 4.71978 25.0388 3.67578Z" fill="#F3F4F5"/>
<path d="M8.45215 3.67532H25.0387C23.8631 1.60716 22.3678 0.264474 20.5536 0.0361328H18.8303C14.9757 0.258732 11.4164 1.5744 8.45215 3.67532Z" fill="#E73625"/>
<path d="M0.746094 14.5919H28.0077C27.8776 13.3417 27.702 12.1218 27.4794 10.9536H2.16461C1.57848 12.107 1.10169 13.3237 0.746094 14.5919Z" fill="#F3F4F5"/>
<path d="M4.53881 7.31396C3.62114 8.43152 2.826 9.65201 2.16504 10.9528H27.4795C27.2341 9.66628 26.9307 8.44579 26.5731 7.31396C26.5731 7.31396 4.53881 7.31396 4.53881 7.31396Z" fill="#E73625"/>
<path d="M0 20.0002C0 20.6305 0.0328494 21.2543 0.0900191 21.8697H28.2519C28.2936 20.6602 28.2942 19.4416 28.2548 18.2314H0.082419C0.0312449 18.8148 0 19.4037 0 20.0002Z" fill="#F3F4F5"/>
<path d="M0.0825195 18.2305H28.2545C28.2144 17.0024 28.132 15.7838 28.0079 14.5923H0.745672C0.416925 15.7654 0.191792 16.9809 0.0825195 18.2305Z" fill="#E73625"/>
<path d="M27.998 25.5088H0.774902C1.1381 26.7783 1.62282 27.9956 2.21681 29.1476H27.4592C27.6854 27.9808 27.865 26.7609 27.998 25.5088Z" fill="#F3F4F5"/>
<path d="M0.774934 25.5089H27.998C28.1247 24.318 28.2096 23.099 28.2522 21.8706H0.090332C0.206192 23.1208 0.4396 24.3363 0.774934 25.5089Z" fill="#E73625"/>
<path d="M8.5946 36.4254H24.9778C25.5819 35.3848 26.103 34.1551 26.5413 32.7871H4.62354C5.77588 34.1709 7.11257 35.3946 8.5946 36.4254Z" fill="#F3F4F5"/>
<path d="M2.2168 29.1479C2.88789 30.4499 3.69434 31.6705 4.62342 32.7868H26.5412C26.9032 31.6569 27.2098 30.4357 27.4589 29.1479H2.2168Z" fill="#E73625"/>
<path d="M19.1535 39.9812C19.194 39.9824 19.2343 39.9843 19.2748 39.9856C19.5155 39.9941 19.7567 39.9998 19.9995 39.9998C22.0336 39.9998 23.6921 38.6397 24.977 36.4263H8.5957C11.6144 38.5258 15.2378 39.8179 19.1535 39.9812Z" fill="#E73625"/>
<path d="M19.5863 0.0102539C9.33734 0.21875 0.98397 8.13208 0.0849609 18.1979H19.5866V0.0102539H19.5863Z" fill="#283991"/>
<path d="M4.00189 11.3315L4.30657 12.2697H5.29374L4.49514 12.8499L4.80016 13.7887L4.00189 13.2083L3.20388 13.7887L3.50831 12.8499L2.70996 12.2697H3.69713L4.00189 11.3315Z" fill="#EFEFEF"/>
<path d="M4.00189 14.646L4.30657 15.5848H5.29374L4.49514 16.1649L4.80016 17.1038L4.00189 16.5233L3.20388 17.1038L3.50831 16.1649L2.70996 15.5848H3.69713L4.00189 14.646Z" fill="#EFEFEF"/>
<path d="M7.31718 6.35791L7.62194 7.29644H8.60877L7.81042 7.87692L8.11519 8.81511L7.31718 8.23531L6.51883 8.81511L6.82359 7.87692L6.0249 7.29644H7.01207L7.31718 6.35791Z" fill="#EFEFEF"/>
<path d="M7.31718 9.67334L7.62194 10.6119H8.60877L7.81042 11.1917L8.11519 12.1305L7.31718 11.5507L6.51883 12.1305L6.82359 11.1917L6.0249 10.6119H7.01207L7.31718 9.67334Z" fill="#EFEFEF"/>
<path d="M7.31718 12.9888L7.62194 13.9276H8.60877L7.81042 14.5071L8.11519 15.446L7.31718 14.8656L6.51883 15.446L6.82359 14.5071L6.0249 13.9276H7.01207L7.31718 12.9888Z" fill="#EFEFEF"/>
<path d="M1.4852 15.446L1.18018 14.5072L1.97853 13.9274H0.991953L0.969829 13.8589C0.861485 14.194 0.763612 14.5331 0.67334 14.876L0.687273 14.8656L1.4852 15.446Z" fill="#EFEFEF"/>
<path d="M3.20418 10.4736L4.00219 9.89317L4.80054 10.4736L4.49552 9.5347L5.29387 8.9543H4.3067L4.00194 8.01611L3.69717 8.9543H3.33338C3.26583 9.05665 3.20046 9.15959 3.13477 9.26346L3.50869 9.5347L3.20418 10.4736Z" fill="#EFEFEF"/>
<path d="M7.31709 4.92023L8.11511 5.50003L7.81034 4.56184L8.60835 3.98145H8.03834C7.55422 4.34338 7.08715 4.72643 6.6384 5.13058L6.51807 5.50003L7.31709 4.92023Z" fill="#EFEFEF"/>
<path d="M9.83398 3.84324L10.6323 3.26285L11.4304 3.84324L11.1256 2.90438L11.9236 2.32457H10.9368L10.8954 2.19824C10.561 2.36908 10.23 2.54683 9.90661 2.73599L10.1384 2.90429L9.83398 3.84324Z" fill="#EFEFEF"/>
<path d="M10.6325 4.70068L10.9373 5.63862H11.9241L11.1258 6.21902L11.4305 7.15789L10.6325 6.57741L9.83417 7.15789L10.1389 6.21902L9.34033 5.63862H10.3274L10.6325 4.70068Z" fill="#EFEFEF"/>
<path d="M10.6325 8.01611L10.9373 8.95405H11.9241L11.1258 9.53445L11.4305 10.4733L10.6325 9.89283L9.83417 10.4733L10.1389 9.53445L9.34033 8.95405H10.3274L10.6325 8.01611Z" fill="#EFEFEF"/>
<path d="M10.6325 11.3315L10.9373 12.2697H11.9241L11.1258 12.8499L11.4305 13.7887L10.6325 13.2083L9.83417 13.7887L10.1389 12.8499L9.34033 12.2697H10.3274L10.6325 11.3315Z" fill="#EFEFEF"/>
<path d="M10.6325 14.646L10.9373 15.5848H11.9241L11.1258 16.1649L11.4305 17.1038L10.6325 16.5233L9.83417 17.1038L10.1389 16.1649L9.34033 15.5848H10.3274L10.6325 14.646Z" fill="#EFEFEF"/>
<path d="M13.9475 3.04297L14.2522 3.9815H15.2391L14.441 4.56198L14.7455 5.50017L13.9475 4.92037L13.1489 5.50017L13.4539 4.56198L12.6553 3.9815H13.6424L13.9475 3.04297Z" fill="#EFEFEF"/>
<path d="M13.9475 6.35791L14.2522 7.29644H15.2391L14.441 7.87692L14.7455 8.81511L13.9475 8.23531L13.1489 8.81511L13.4539 7.87692L12.6553 7.29644H13.6424L13.9475 6.35791Z" fill="#EFEFEF"/>
<path d="M13.9475 9.67334L14.2522 10.6119H15.2391L14.441 11.1917L14.7455 12.1305L13.9475 11.5507L13.1489 12.1305L13.4539 11.1917L12.6553 10.6119H13.6424L13.9475 9.67334Z" fill="#EFEFEF"/>
<path d="M13.9475 12.9888L14.2522 13.9276H15.2391L14.441 14.5071L14.7455 15.446L13.9475 14.8656L13.1489 15.446L13.4539 14.5071L12.6553 13.9276H13.6424L13.9475 12.9888Z" fill="#EFEFEF"/>
<path d="M17.2629 1.38574L17.5677 2.32427H18.5545L17.7561 2.90408L18.0609 3.84295L17.2629 3.26247L16.4643 3.84295L16.7693 2.90408L15.9707 2.32427H16.9575L17.2629 1.38574Z" fill="#EFEFEF"/>
<path d="M17.2629 4.70068L17.5677 5.63862H18.5545L17.7561 6.21902L18.0609 7.15789L17.2629 6.57741L16.4643 7.15789L16.7693 6.21902L15.9707 5.63862H16.9575L17.2629 4.70068Z" fill="#EFEFEF"/>
<path d="M17.2629 8.01611L17.5677 8.95405H18.5545L17.7561 9.53445L18.0609 10.4733L17.2629 9.89283L16.4643 10.4733L16.7693 9.53445L15.9707 8.95405H16.9575L17.2629 8.01611Z" fill="#EFEFEF"/>
<path d="M17.2629 11.3315L17.5677 12.2697H18.5545L17.7561 12.8499L18.0609 13.7887L17.2629 13.2083L16.4643 13.7887L16.7693 12.8499L15.9707 12.2697H16.9575L17.2629 11.3315Z" fill="#EFEFEF"/>
<path d="M17.2629 14.646L17.5677 15.5848H18.5545L17.7561 16.1649L18.0609 17.1038L17.2629 16.5233L16.4643 17.1038L16.7693 16.1649L15.9707 15.5848H16.9575L17.2629 14.646Z" fill="#EFEFEF"/>
</g>
<defs>
<clipPath id="clip0">
<rect width="40" height="40" fill="white"/>
</clipPath>
</defs>
</svg>
