<?xml version="1.0" encoding="utf-8"?>
<!-- Generator: Adobe Illustrator 16.0.0, SVG Export Plug-In . SVG Version: 6.00 Build 0)  -->
<!DOCTYPE svg PUBLIC "-//W3C//DTD SVG 1.1//EN" "http://www.w3.org/Graphics/SVG/1.1/DTD/svg11.dtd">
<svg version="1.1" id="Capa_1" xmlns="http://www.w3.org/2000/svg" xmlns:xlink="http://www.w3.org/1999/xlink" x="0px" y="0px"
	 width="60px" height="40px" viewBox="-10 0 60 40" enable-background="new -10 0 60 40" xml:space="preserve">
<path fill="#FFFFFF" d="M20.001,40C31.046,40,40,31.046,40,20.001C40,8.956,31.046,0.002,20.001,0.002c-11.045,0-20,8.954-20,19.999
	C0.001,31.046,8.956,40,20.001,40z"/>
<path fill="#BE2126" d="M38.856,13.332c-0.002-0.006-0.004-0.012-0.007-0.017C36.291,6.097,29.707,0.787,21.796,0.082
	c3.061,1.678,3.954,6.995,4.737,13.25c0.535,4.272,0.539,8.98,0.011,13.257c-0.776,6.289-1.675,11.644-4.748,13.328
	c7.925-0.706,14.519-6.034,17.067-13.271c0.008-0.02,0.013-0.039,0.02-0.058C39.604,24.525,40,22.309,40,20
	C40,17.661,39.594,15.417,38.856,13.332z"/>
<path fill="#D32027" d="M27.564,13.332c-0.783-6.255-2.707-11.571-5.769-13.25C21.204,0.03,20.605,0,20,0
	C11.299,0,3.9,5.557,1.149,13.314c-0.002,0.005-0.004,0.011-0.006,0.017C0.405,15.417,0,17.661,0,20c0,2.31,0.396,4.525,1.116,6.589
	c0.007,0.019,0.013,0.038,0.02,0.058C3.876,34.424,11.285,40,20,40c0.606,0,1.205-0.03,1.796-0.083
	c3.074-1.685,5.001-7.04,5.778-13.328C28.103,22.311,28.1,17.604,27.564,13.332z"/>
<path fill="#F3F4F5" d="M27.965,24.129c0.17-2.883,0.156-5.834-0.031-8.709h-8.957V0.026c-3.152,0.159-6.109,1.05-8.71,2.503v12.891
	H0.533C0.188,16.891,0,18.423,0,20c0,1.416,0.149,2.797,0.429,4.129h9.837v13.342c2.602,1.452,5.559,2.344,8.71,2.503V24.129H27.965
	z"/>
<path fill="#E4E4E4" d="M39.467,15.419H31.1h-3.271c0.188,2.875,0.201,5.827,0.031,8.709h3.272h8.438C39.851,22.797,40,21.416,40,20
	C40,18.423,39.812,16.891,39.467,15.419z"/>
<path fill="#2B479D" d="M39.66,16.346H26.045c0.15,2.293,0.16,4.648,0.025,6.948h13.654C39.904,22.223,40,21.123,40,20
	C40,18.751,39.881,17.531,39.66,16.346z"/>
<path fill="#3757A6" d="M27.846,16.346h-9.67V0.085c-2.474,0.224-4.816,0.898-6.947,1.941v14.321H0.339C0.119,17.531,0,18.751,0,20
	c0,1.123,0.095,2.223,0.274,3.294h10.955v14.68c2.131,1.042,4.474,1.718,6.947,1.94v-16.62h9.695
	C28.007,20.994,27.996,18.639,27.846,16.346z"/>
</svg>
