<?xml version="1.0" encoding="utf-8"?>
<!-- Generator: Adobe Illustrator 16.0.0, SVG Export Plug-In . SVG Version: 6.00 Build 0)  -->
<!DOCTYPE svg PUBLIC "-//W3C//DTD SVG 1.1//EN" "http://www.w3.org/Graphics/SVG/1.1/DTD/svg11.dtd">
<svg version="1.1" id="Capa_1" xmlns="http://www.w3.org/2000/svg" xmlns:xlink="http://www.w3.org/1999/xlink" x="0px" y="0px"
	 width="60px" height="40px" viewBox="-10 0 60 40" enable-background="new -10 0 60 40" xml:space="preserve">
<path fill="#F0F0F0" d="M20,40c11.046,0,20-8.954,20-20S31.046,0,20,0S0,8.954,0,20S8.954,40,20,40z"/>
<path fill="#D80027" d="M0,20C0,8.955,8.955,0,20,0c11.045,0,20,8.955,20,20"/>
<path fill="#F0F0F0" d="M12.174,10.435c0-2.914,2.048-5.348,4.783-5.945c-0.42-0.092-0.856-0.142-1.305-0.142
	c-3.361,0-6.086,2.726-6.086,6.087s2.725,6.087,6.086,6.087c0.448,0,0.884-0.05,1.305-0.142
	C14.222,15.783,12.174,13.349,12.174,10.435z"/>
<path fill="#F0F0F0" d="M20,4.783l0.432,1.329h1.396l-1.13,0.821l0.432,1.328L20,7.44l-1.13,0.821l0.432-1.328l-1.13-0.821h1.397
	L20,4.783z"/>
<path fill="#F0F0F0" d="M16.611,7.392l0.432,1.328h1.397l-1.13,0.821l0.432,1.329l-1.13-0.821l-1.13,0.821l0.432-1.329l-1.13-0.821
	h1.396L16.611,7.392z"/>
<path fill="#F0F0F0" d="M23.389,7.392L23.82,8.72h1.396l-1.13,0.821l0.433,1.329l-1.131-0.821l-1.131,0.821l0.433-1.329l-1.13-0.821
	h1.396L23.389,7.392z"/>
<path fill="#F0F0F0" d="M22.084,11.304l0.433,1.329h1.396l-1.13,0.821l0.432,1.329l-1.131-0.821l-1.129,0.821l0.432-1.329
	l-1.131-0.821h1.396L22.084,11.304z"/>
<path fill="#F0F0F0" d="M17.916,11.304l0.432,1.329h1.397l-1.13,0.821l0.432,1.329l-1.13-0.821l-1.13,0.821l0.432-1.329l-1.13-0.821
	h1.397L17.916,11.304z"/>
</svg>
