<svg width="30" height="30" viewBox="0 0 30 30" fill="none" xmlns="http://www.w3.org/2000/svg">
<path d="M18.521 11.9788C18 11.3568 17.587 10.8648 17.124 10.3108C16.374 10.8138 15.639 11.3228 14.89 11.8108C12.342 13.4718 9.62 14.7268 6.621 15.3318C5.7 15.5198 5.023 15.1758 4.865 14.4198C4.717 13.7168 5.169 13.1228 6.077 12.9308C9.584 12.1938 12.604 10.4578 15.535 8.37679C15.085 7.82479 14.653 7.29479 14.133 6.65479C16.442 6.26579 18.631 5.89779 20.942 5.50879C20.126 7.69179 19.35 9.77079 18.521 11.9788Z" fill="white"/>
<path d="M24.665 18.5226C24.665 20.2506 24.67 21.9756 24.664 23.7036C24.659 24.9056 24.232 25.3296 23.038 25.3426C22.779 25.3446 22.521 25.3536 22.266 25.3366C21.444 25.2826 20.96 24.8406 20.957 24.0136C20.939 20.3536 20.939 16.6956 20.957 13.0356C20.96 12.2096 21.441 11.7636 22.266 11.7126C22.574 11.6936 22.883 11.6996 23.194 11.7096C24.192 11.7366 24.653 12.1876 24.663 13.1916C24.676 14.9676 24.665 16.7456 24.665 18.5226Z" fill="white"/>
<path d="M19.706 19.807C19.706 21.147 19.716 22.487 19.703 23.826C19.691 24.881 19.243 25.321 18.191 25.344C17.881 25.349 17.57 25.361 17.263 25.335C16.484 25.278 16.005 24.836 15.998 24.05C15.977 21.193 15.976 18.333 15.999 15.474C16.006 14.694 16.489 14.251 17.27 14.197C17.602 14.174 17.94 14.181 18.274 14.191C19.227 14.223 19.688 14.675 19.701 15.637C19.718 17.025 19.706 18.417 19.706 19.807Z" fill="white"/>
<path d="M11.031 20.9697C11.03 20.0177 11.016 19.0647 11.033 18.1137C11.051 17.1527 11.507 16.7017 12.459 16.6697C12.794 16.6577 13.13 16.6507 13.463 16.6747C14.244 16.7317 14.724 17.1707 14.734 17.9507C14.761 19.9847 14.761 22.0177 14.735 24.0517C14.725 24.8357 14.249 25.2807 13.471 25.3347C13.113 25.3597 12.75 25.3557 12.39 25.3387C11.523 25.2977 11.057 24.8507 11.036 23.9817C11.012 22.9787 11.031 21.9727 11.031 20.9697Z" fill="white"/>
<path d="M6.073 22.1928C6.073 21.6278 6.053 21.0618 6.076 20.4968C6.113 19.6358 6.571 19.1888 7.439 19.1478C7.772 19.1298 8.108 19.1298 8.442 19.1478C9.275 19.1928 9.755 19.6268 9.777 20.4408C9.809 21.6478 9.809 22.8568 9.776 24.0658C9.754 24.8428 9.28 25.2828 8.498 25.3328C8.114 25.3568 7.726 25.3588 7.341 25.3328C6.565 25.2768 6.12 24.8298 6.081 24.0448C6.051 23.4298 6.075 22.8108 6.073 22.1928Z" fill="white"/>
</svg>
