<svg width="30" height="30" viewBox="0 0 30 30" fill="none" xmlns="http://www.w3.org/2000/svg">
<path fill-rule="evenodd" clip-rule="evenodd" d="M12.5 15C12.5 13.6193 13.6193 12.5 15 12.5C16.3807 12.5 17.5 13.6193 17.5 15C17.5 16.3807 16.3807 17.5 15 17.5C13.6193 17.5 12.5 16.3807 12.5 15Z" fill="#8098A3"/>
<path fill-rule="evenodd" clip-rule="evenodd" d="M21.25 15C21.25 13.6193 22.3693 12.5 23.75 12.5C25.1307 12.5 26.25 13.6193 26.25 15C26.25 16.3807 25.1307 17.5 23.75 17.5C22.3693 17.5 21.25 16.3807 21.25 15Z" fill="#8098A3"/>
<path fill-rule="evenodd" clip-rule="evenodd" d="M3.75 15C3.75 13.6193 4.86929 12.5 6.25 12.5C7.63071 12.5 8.75 13.6193 8.75 15C8.75 16.3807 7.63071 17.5 6.25 17.5C4.86929 17.5 3.75 16.3807 3.75 15Z" fill="#8098A3"/>
</svg>
