<svg width="30" height="30" viewBox="0 0 30 30" fill="none" xmlns="http://www.w3.org/2000/svg">
<path d="M2.57089 15.178C2.77189 14.943 2.95689 14.686 3.17589 14.475C4.72789 12.98 6.28689 11.492 7.84589 10.005C9.0399 8.86698 10.2369 7.73398 11.4309 6.59498C12.2239 5.83998 13.0089 5.07398 13.8069 4.32698C14.5089 3.66698 15.4979 3.67098 16.2019 4.33598C17.4089 5.47998 18.6049 6.63598 19.8059 7.78798C19.8309 7.80998 19.8589 7.82798 19.9169 7.87398C19.9249 7.76498 19.9349 7.68798 19.9349 7.61098C19.9369 6.61698 19.9349 5.62398 19.9369 4.62998C19.9369 4.06698 20.0889 3.89198 20.5749 3.89198C21.4709 3.89098 22.3609 3.89098 23.2549 3.89198C23.7139 3.89198 23.8759 4.07898 23.8779 4.60598C23.8779 6.87398 23.8779 9.14198 23.8719 11.41C23.8719 11.597 23.9249 11.721 24.0459 11.835C25.0669 12.798 26.0849 13.763 27.0979 14.736C27.2269 14.859 27.3209 15.029 27.4299 15.177C27.4299 15.283 27.4299 15.389 27.4299 15.495C27.1059 15.952 26.7839 16.411 26.4559 16.864C26.1729 17.255 25.9189 17.291 25.5719 16.961C24.6439 16.083 23.7239 15.194 22.8009 14.312C21.9899 13.536 21.1759 12.761 20.3629 11.986C19.5249 11.186 18.6869 10.386 17.8489 9.58498C16.9479 8.72098 16.0419 7.85798 15.1419 6.98998C15.0369 6.88798 14.9609 6.88598 14.8539 6.98898C14.0299 7.78498 13.2029 8.57698 12.3759 9.36798C11.5539 10.155 10.7299 10.938 9.90689 11.724C9.07989 12.514 8.25189 13.304 7.42389 14.095C6.50089 14.978 5.57689 15.862 4.65289 16.742C4.54589 16.845 4.44289 16.951 4.32989 17.044C4.06989 17.255 3.83289 17.239 3.62389 16.962C3.26289 16.483 2.91889 15.984 2.56689 15.495C2.57089 15.39 2.57089 15.284 2.57089 15.178Z" fill="white"/>
<path d="M16.9727 26.492C16.9727 24.236 16.9727 21.995 16.9727 19.736C16.8867 19.73 16.8207 19.726 16.7557 19.726C15.5837 19.724 14.4137 19.73 13.2427 19.72C13.0677 19.719 13.0187 19.773 13.0197 19.974C13.0257 22.045 13.0237 24.118 13.0237 26.189C13.0237 26.287 13.0237 26.381 13.0237 26.51C12.9317 26.51 12.8607 26.51 12.7907 26.51C10.9367 26.51 9.08365 26.511 7.23065 26.51C6.51565 26.51 6.12265 26.066 6.12265 25.245C6.12065 22.52 6.12365 19.797 6.11865 17.073C6.11865 16.868 6.18365 16.745 6.31865 16.617C7.68965 15.331 9.05265 14.036 10.4197 12.744C11.6227 11.607 12.8297 10.473 14.0327 9.33695C14.3527 9.03495 14.6697 8.72895 14.9967 8.41595C15.4827 8.87495 15.9557 9.32195 16.4317 9.76895C17.8147 11.075 19.1957 12.379 20.5777 13.686C21.6397 14.687 22.6987 15.688 23.7537 16.698C23.8187 16.76 23.8707 16.887 23.8707 16.985C23.8787 19.776 23.8807 22.569 23.8727 25.362C23.8707 26.035 23.4667 26.504 22.8877 26.505C20.9527 26.515 19.0227 26.51 17.0897 26.51C17.0627 26.511 17.0367 26.503 16.9727 26.492Z" fill="white"/>
</svg>
