<svg width="30" height="30" viewBox="0 0 30 30" fill="none" xmlns="http://www.w3.org/2000/svg">
<path d="M21.6667 5H8.68533H7.98133H7.66667L7.72267 5.02656C6.19867 5.15937 5 6.41837 5 7.96955V12.9684H10.3333V25.585C10.3333 25.8054 10.444 26.0113 10.6267 26.1348C10.8093 26.2583 11.0427 26.2822 11.248 26.2012L14.3333 24.9714L17.4187 26.2012C17.5773 26.2663 17.7547 26.2663 17.9133 26.2012L21 24.9714L24.0853 26.2012C24.1653 26.2331 24.2507 26.249 24.3333 26.249C24.4653 26.249 24.5947 26.2105 24.7067 26.1348C24.8907 26.0113 25 25.8054 25 25.585V8.32016C25 6.49009 23.5053 5 21.6667 5ZM10.3333 8.98419V11.6403H6.33333V7.96955C6.33333 7.06514 7.07333 6.32806 7.98133 6.32806H8.68533C9.59333 6.32806 10.3333 7.06514 10.3333 7.96955V8.98419ZM21.6667 20.9368H16.3333C15.9653 20.9368 15.6667 20.6393 15.6667 20.2727C15.6667 19.9062 15.9653 19.6087 16.3333 19.6087H21.6667C22.0347 19.6087 22.3333 19.9062 22.3333 20.2727C22.3333 20.6393 22.0347 20.9368 21.6667 20.9368ZM21.6667 18.2806H16.3333C15.9653 18.2806 15.6667 17.9831 15.6667 17.6166C15.6667 17.2501 15.9653 16.9526 16.3333 16.9526H21.6667C22.0347 16.9526 22.3333 17.2501 22.3333 17.6166C22.3333 17.9831 22.0347 18.2806 21.6667 18.2806ZM21.6667 15.6245H13.6667C13.2987 15.6245 13 15.327 13 14.9605C13 14.5939 13.2987 14.2964 13.6667 14.2964H21.6667C22.0347 14.2964 22.3333 14.5939 22.3333 14.9605C22.3333 15.327 22.0347 15.6245 21.6667 15.6245ZM21.6667 10.3123H13.6667C13.2987 10.3123 13 10.0148 13 9.64822C13 9.28167 13.2987 8.98419 13.6667 8.98419H21.6667C22.0347 8.98419 22.3333 9.28167 22.3333 9.64822C22.3333 10.0148 22.0347 10.3123 21.6667 10.3123Z" fill="#8098A3"/>
</svg>
