<svg width="24" height="24" viewBox="0 0 24 24" fill="none" xmlns="http://www.w3.org/2000/svg">
<path d="M19.046 15.686C17.912 14.727 17.262 13.327 17.262 11.841V9.75C17.262 7.111 15.301 4.926 12.762 4.56V3.75C12.762 3.335 12.426 3 12.012 3C11.598 3 11.262 3.335 11.262 3.75V4.56C8.72099 4.926 6.76199 7.111 6.76199 9.75V11.841C6.76199 13.325 6.11199 14.727 4.97099 15.692C4.67899 15.942 4.51199 16.305 4.51199 16.688C4.51199 17.411 5.10099 18 5.82399 18H18.199C18.923 18 19.512 17.411 19.512 16.687C19.512 16.305 19.346 15.939 19.046 15.686Z" fill="white"/>
<path d="M12.012 21C13.37 21 14.506 20.031 14.767 18.75H9.256C9.517 20.031 10.653 21 12.012 21Z" fill="white"/>
</svg>
