<?xml version="1.0" encoding="utf-8"?>
<!-- Generator: Adobe Illustrator 16.0.0, SVG Export Plug-In . SVG Version: 6.00 Build 0)  -->
<!DOCTYPE svg PUBLIC "-//W3C//DTD SVG 1.1//EN" "http://www.w3.org/Graphics/SVG/1.1/DTD/svg11.dtd">
<svg version="1.1" id="Capa_1" xmlns="http://www.w3.org/2000/svg" xmlns:xlink="http://www.w3.org/1999/xlink" x="0px" y="0px"
	 width="60px" height="40px" viewBox="-10 0 60 40" enable-background="new -10 0 60 40" xml:space="preserve">
<g>
	<defs>
		<rect id="SVGID_1_" width="40" height="40"/>
	</defs>
	<clipPath id="SVGID_2_">
		<use xlink:href="#SVGID_1_"  overflow="visible"/>
	</clipPath>
	<g clip-path="url(#SVGID_2_)">
		<path fill="#C42126" d="M39.911,21.871H0.09l0,0H39.911L39.911,21.871z"/>
		<path fill="#C42126" d="M37.836,10.953H2.165v0L37.836,10.953L37.836,10.953z"/>
		<path fill="#C42126" d="M39.253,14.591H0.746v0L39.253,14.591L39.253,14.591z"/>
		<path fill="#C42126" d="M8.596,36.427h22.808l0.001-0.001H8.595L8.596,36.427z"/>
		<path fill="#C42126" d="M20,0c-0.393,0-0.782,0.014-1.169,0.036h2.34C20.782,0.014,20.393,0,20,0z"/>
		<path fill="#C42126" d="M39.916,18.231H0.083v0L39.916,18.231L39.916,18.231z"/>
		<path fill="#E7E7E7" d="M25.911,7.314h9.55c-1.134-1.381-2.452-2.604-3.913-3.638h-7.171C24.971,4.72,25.48,5.951,25.911,7.314z"
			/>
		<path fill="#DC3027" d="M24.377,3.676h7.171c-2.964-2.101-6.524-3.417-10.378-3.64h-0.616C22.367,0.265,23.201,1.607,24.377,3.676
			z"/>
		<path fill="#E7E7E7" d="M39.254,14.592c-0.355-1.268-0.832-2.485-1.418-3.638H26.849c0.223,1.168,0.398,2.388,0.528,3.638H39.254z
			"/>
		<path fill="#DC3027" d="M26.23,10.953h11.605c-0.662-1.3-1.457-2.521-2.375-3.639H25.324C25.682,8.445,25.984,9.666,26.23,10.953z
			"/>
		<path fill="#E7E7E7" d="M27.797,21.869H39.91C39.967,21.254,40,20.631,40,20c0-0.597-0.031-1.186-0.082-1.769H27.801
			C27.84,19.441,27.84,20.66,27.797,21.869z"/>
		<path fill="#DC3027" d="M39.918,18.23c-0.109-1.25-0.335-2.465-0.664-3.638H26.867c0.124,1.191,0.206,2.411,0.246,3.638H39.918z"
			/>
		<path fill="#E7E7E7" d="M26.64,29.148h11.144c0.594-1.152,1.078-2.37,1.441-3.64H27.178C27.046,26.761,26.865,27.98,26.64,29.148z
			"/>
		<path fill="#DC3027" d="M39.226,25.509c0.335-1.173,0.569-2.389,0.685-3.638H27.42c-0.043,1.229-0.127,2.447-0.254,3.638H39.226z"
			/>
		<path fill="#E7E7E7" d="M31.406,36.426c1.48-1.031,2.818-2.255,3.971-3.639h-9.384c-0.438,1.367-0.96,2.598-1.563,3.639H31.406z"
			/>
		<path fill="#DC3027" d="M25.641,32.787h9.736c0.929-1.117,1.735-2.338,2.406-3.639H26.559
			C26.309,30.436,26.002,31.656,25.641,32.787z"/>
		<path fill="#DC3027" d="M19.275,39.986c-0.041-0.002-0.081-0.004-0.121-0.005C19.194,39.982,19.235,39.984,19.275,39.986z"/>
		<path fill="#DC3027" d="M20,40c4.24,0,8.168-1.323,11.404-3.573h-7.238C22.881,38.641,22.033,40,20,40z"/>
		<path fill="#C42126" d="M20,40c-0.243,0-0.484-0.006-0.725-0.014C19.518,39.994,19.76,40,20,40z"/>
		<path fill="#F3F4F5" d="M25.039,3.676H8.453C6.992,4.71,5.673,5.933,4.539,7.314h22.035C26.143,5.951,25.633,4.72,25.039,3.676z"
			/>
		<path fill="#E73625" d="M8.452,3.676h16.587c-1.176-2.068-2.671-3.411-4.485-3.64h-1.723C14.976,0.259,11.417,1.575,8.452,3.676z"
			/>
		<path fill="#F3F4F5" d="M0.746,14.592h27.262c-0.131-1.25-0.306-2.47-0.528-3.638H2.165C1.579,12.107,1.102,13.324,0.746,14.592z"
			/>
		<path fill="#E73625" d="M4.539,7.314c-0.917,1.118-1.712,2.338-2.374,3.639h25.314c-0.245-1.287-0.549-2.507-0.906-3.639H4.539z"
			/>
		<path fill="#F3F4F5" d="M0,20c0,0.631,0.033,1.254,0.09,1.869h28.162c0.042-1.209,0.043-2.428,0.003-3.638H0.083
			C0.031,18.815,0,19.404,0,20z"/>
		<path fill="#E73625" d="M0.083,18.23h28.171c-0.039-1.228-0.122-2.447-0.246-3.638H0.746C0.417,15.766,0.192,16.981,0.083,18.23z"
			/>
		<path fill="#F3F4F5" d="M27.998,25.508H0.775c0.363,1.27,0.848,2.488,1.442,3.64h25.242C27.686,27.98,27.865,26.761,27.998,25.508
			z"/>
		<path fill="#E73625" d="M0.775,25.509h27.223c0.127-1.19,0.211-2.41,0.254-3.638H0.09C0.206,23.121,0.439,24.336,0.775,25.509z"/>
		<path fill="#F3F4F5" d="M8.595,36.426h16.384c0.604-1.041,1.125-2.271,1.563-3.639H4.624C5.776,34.171,7.113,35.395,8.595,36.426z
			"/>
		<path fill="#E73625" d="M2.217,29.147c0.671,1.302,1.478,2.522,2.406,3.64h21.917c0.362-1.131,0.669-2.352,0.918-3.64H2.217z"/>
		<path fill="#E73625" d="M19.154,39.981c0.041,0.001,0.081,0.003,0.121,0.004C19.516,39.994,19.757,40,20,40
			c2.033,0,3.692-1.36,4.977-3.574H8.596C11.615,38.525,15.238,39.818,19.154,39.981z"/>
		<path fill="#283991" d="M19.586,0.01C9.337,0.219,0.984,8.132,0.085,18.198h19.501V0.01L19.586,0.01z"/>
		<path fill="#EFEFEF" d="M4.002,11.332l0.305,0.938h0.987L4.495,12.85L4.8,13.789l-0.798-0.58l-0.798,0.58l0.304-0.938L2.71,12.27
			h0.987L4.002,11.332z"/>
		<path fill="#EFEFEF" d="M4.002,14.646l0.305,0.939h0.987l-0.799,0.58L4.8,17.104l-0.798-0.581l-0.798,0.581l0.304-0.939
			l-0.798-0.58h0.987L4.002,14.646z"/>
		<path fill="#EFEFEF" d="M7.317,6.358l0.305,0.938h0.987L7.81,7.877l0.305,0.938l-0.798-0.58l-0.798,0.58l0.305-0.938L6.025,7.297
			h0.987L7.317,6.358z"/>
		<path fill="#EFEFEF" d="M7.317,9.674l0.305,0.938h0.987l-0.798,0.58l0.305,0.939l-0.798-0.58l-0.798,0.58l0.305-0.939l-0.798-0.58
			h0.987L7.317,9.674z"/>
		<path fill="#EFEFEF" d="M7.317,12.989l0.305,0.939h0.987L7.81,14.507l0.305,0.939l-0.798-0.58l-0.798,0.58l0.305-0.939
			l-0.798-0.579h0.987L7.317,12.989z"/>
		<path fill="#EFEFEF" d="M1.485,15.446L1.18,14.507l0.798-0.58H0.992L0.97,13.859c-0.108,0.335-0.207,0.674-0.296,1.017l0.014-0.01
			L1.485,15.446z"/>
		<path fill="#EFEFEF" d="M3.204,10.474l0.798-0.581L4.8,10.474L4.495,9.535l0.798-0.581H4.307L4.001,8.016L3.697,8.954H3.333
			C3.266,9.057,3.2,9.16,3.134,9.264l0.374,0.271L3.204,10.474z"/>
		<path fill="#EFEFEF" d="M7.317,4.921L8.115,5.5L7.811,4.563l0.798-0.581h-0.57c-0.484,0.362-0.952,0.745-1.4,1.149L6.518,5.5
			L7.317,4.921z"/>
		<path fill="#EFEFEF" d="M9.834,3.843l0.798-0.581l0.798,0.581l-0.305-0.939l0.798-0.58h-0.987l-0.042-0.126
			c-0.334,0.171-0.666,0.349-0.989,0.538l0.231,0.168L9.834,3.843z"/>
		<path fill="#EFEFEF" d="M10.632,4.701l0.305,0.938h0.987L11.125,6.22l0.305,0.938l-0.798-0.58l-0.798,0.58l0.305-0.938L9.34,5.639
			h0.987L10.632,4.701z"/>
		<path fill="#EFEFEF" d="M10.632,8.016l0.305,0.938h0.987l-0.798,0.58l0.305,0.939l-0.798-0.581l-0.798,0.581l0.305-0.939
			L9.34,8.954h0.987L10.632,8.016z"/>
		<path fill="#EFEFEF" d="M10.632,11.332l0.305,0.938h0.987l-0.798,0.581l0.305,0.938l-0.798-0.58l-0.798,0.58l0.305-0.938
			L9.34,12.27h0.987L10.632,11.332z"/>
		<path fill="#EFEFEF" d="M10.632,14.646l0.305,0.939h0.987l-0.798,0.58l0.305,0.939l-0.798-0.581l-0.798,0.581l0.305-0.939
			l-0.798-0.58h0.987L10.632,14.646z"/>
		<path fill="#EFEFEF" d="M13.947,3.043l0.305,0.939h0.987l-0.798,0.581L14.746,5.5l-0.798-0.58L13.149,5.5l0.305-0.938
			l-0.799-0.581h0.987L13.947,3.043z"/>
		<path fill="#EFEFEF" d="M13.947,6.358l0.305,0.938h0.987l-0.798,0.581l0.305,0.938l-0.798-0.58l-0.798,0.58l0.305-0.938
			l-0.799-0.581h0.987L13.947,6.358z"/>
		<path fill="#EFEFEF" d="M13.947,9.674l0.305,0.938h0.987l-0.798,0.58l0.305,0.939l-0.798-0.58l-0.798,0.58l0.305-0.939
			l-0.799-0.58h0.987L13.947,9.674z"/>
		<path fill="#EFEFEF" d="M13.947,12.989l0.305,0.939h0.987l-0.798,0.579l0.305,0.939l-0.798-0.58l-0.798,0.58l0.305-0.939
			l-0.799-0.579h0.987L13.947,12.989z"/>
		<path fill="#EFEFEF" d="M17.262,1.386l0.305,0.939h0.987l-0.798,0.58l0.305,0.939l-0.798-0.581l-0.798,0.581l0.305-0.939
			l-0.799-0.58h0.987L17.262,1.386z"/>
		<path fill="#EFEFEF" d="M17.262,4.701l0.305,0.938h0.987L17.756,6.22l0.305,0.938l-0.798-0.58l-0.798,0.58l0.305-0.938
			L15.97,5.639h0.987L17.262,4.701z"/>
		<path fill="#EFEFEF" d="M17.262,8.016l0.305,0.938h0.987l-0.798,0.58l0.305,0.939l-0.798-0.581l-0.798,0.581l0.305-0.939
			l-0.799-0.58h0.987L17.262,8.016z"/>
		<path fill="#EFEFEF" d="M17.262,11.332l0.305,0.938h0.987l-0.798,0.581l0.305,0.938l-0.798-0.58l-0.798,0.58l0.305-0.938
			L15.97,12.27h0.987L17.262,11.332z"/>
		<path fill="#EFEFEF" d="M17.262,14.646l0.305,0.939h0.987l-0.798,0.58l0.305,0.939l-0.798-0.581l-0.798,0.581l0.305-0.939
			l-0.799-0.58h0.987L17.262,14.646z"/>
	</g>
</g>
</svg>
